<svg width="16" height="16" viewBox="0 0 16 16" fill="none" xmlns="http://www.w3.org/2000/svg">
<path d="M13.2463 5.01616L7.00946 11.9039C6.95422 11.9654 6.87902 12 6.80058 12C6.72214 12 6.64694 11.9654 6.59171 11.9039L3.42033 8.40155C3.36464 8.34054 3.33331 8.2575 3.33331 8.17087C3.33331 8.08425 3.36464 8.0012 3.42033 7.9402L3.8322 7.48535C3.88744 7.42384 3.96263 7.38925 4.04108 7.38925C4.11952 7.38925 4.19471 7.42384 4.24995 7.48535L6.79764 10.2989L12.4167 4.09346C12.5331 3.96885 12.718 3.96885 12.8344 4.09346L13.2463 4.55481C13.302 4.61582 13.3333 4.69886 13.3333 4.78549C13.3333 4.87212 13.302 4.95516 13.2463 5.01616Z" fill="white"/>
</svg>
