<?xml version="1.0" standalone="no"?>
<!DOCTYPE svg PUBLIC "-//W3C//DTD SVG 1.1//EN" "http://www.w3.org/Graphics/SVG/1.1/DTD/svg11.dtd" >
<svg xmlns="http://www.w3.org/2000/svg">
<metadata>Generated by IcoMoon</metadata>
<defs>
<font id="sixshop" horiz-adv-x="1024">
<font-face units-per-em="1024" ascent="960" descent="-64" />
<missing-glyph horiz-adv-x="1024" />
<glyph unicode="&#x20;" horiz-adv-x="512" d="" />
<glyph unicode="&#xe900;" glyph-name="chevron-left-line-big2" d="M304 448c0 4.243 1.686 8.314 4.686 11.314l384 384c6.248 6.248 16.379 6.248 22.627 0s6.248-16.379 0-22.627l-372.686-372.686 372.686-372.686c6.248-6.248 6.248-16.379 0-22.627s-16.379-6.248-22.627 0l-384 384c-3 3-4.686 7.070-4.686 11.314z" />
<glyph unicode="&#xe901;" glyph-name="chevron-right-line-big2" d="M720 448c0-4.243-1.686-8.314-4.686-11.314l-384-384c-6.248-6.248-16.379-6.248-22.627 0s-6.248 16.379 0 22.627l372.686 372.686-372.686 372.686c-6.248 6.248-6.248 16.379 0 22.628s16.379 6.248 22.627 0l384-384c3-3 4.686-7.070 4.686-11.314z" />
<glyph unicode="&#xe902;" glyph-name="img-big" d="M631.026 360.669c-6.128-10.614-21.427-10.68-27.645-0.117l-184.949 314.182c-6.189 10.51-21.39 10.51-27.578 0l-316.618-537.854c-6.279-10.666 1.411-24.117 13.788-24.117h399.432c0.197 0 0.32-0.213 0.221-0.382s0.024-0.382 0.221-0.382h448.989c12.317 0 20.014 13.333 13.856 24l-210.858 365.218c-6.158 10.667-21.555 10.667-27.714 0l-81.146-140.547zM905.72 739.478c0-42.262-34.26-76.522-76.522-76.522s-76.522 34.26-76.522 76.522c0 42.262 34.26 76.522 76.522 76.522s76.522-34.26 76.522-76.522z" />
<glyph unicode="&#xe903;" glyph-name="account-circle-line-big" d="M816.531 188.643c-27.056 107.651-124.486 187.357-240.531 187.357h-128c-116.045 0-213.476-79.706-240.532-187.357-59.533 69.834-95.468 160.4-95.468 259.357 0 220.914 179.086 400 400 400s400-179.086 400-400c0-98.957-35.936-189.523-95.469-259.357zM775.136 146.73c-70.333-61.482-162.384-98.73-263.136-98.73s-192.804 37.248-263.135 98.73c9.443 101.674 94.994 181.27 199.135 181.27h128c104.141 0 189.693-79.597 199.136-181.27zM512 0c247.424 0 448 200.576 448 448s-200.576 448-448 448c-247.424 0-448-200.576-448-448s200.576-448 448-448zM512 464c-61.856 0-112 50.144-112 112s50.144 112 112 112c61.856 0 112-50.144 112-112s-50.144-112-112-112zM512 416c88.365 0 160 71.635 160 160s-71.635 160-160 160c-88.365 0-160-71.635-160-160s71.635-160 160-160z" />
<glyph unicode="&#xe904;" glyph-name="add-circle-line-big" d="M512 48c220.915 0 400 179.085 400 400s-179.085 400-400 400c-220.914 0-400-179.086-400-400s179.086-400 400-400zM64 448c0 247.424 200.576 448 448 448s448-200.576 448-448c0-247.424-200.576-448-448-448s-448 200.576-448 448zM535.99 632.608v-160.614h160.614c13.254 0 24-10.746 24-24s-10.746-24-24-24h-160.614v-160.614c0-13.254-10.746-24-24-24s-24 10.746-24 24v160.614h-160.614c-13.256 0-24.001 10.746-24.001 24s10.745 24 24.001 24h160.614v160.614c0 13.256 10.746 24.001 24 24.001s24-10.745 24-24.001z" />
<glyph unicode="&#xe905;" glyph-name="customer-manage-line-big" d="M112 704v-512c0-26.509 21.49-48 48-48h704c26.509 0 48 21.491 48 48v512c0 26.51-21.491 48-48 48h-704c-26.51 0-48-21.49-48-48zM64 192v512c0 53.019 42.981 96 96 96h704c53.021 0 96-42.981 96-96v-512c0-53.021-42.979-96-96-96h-704c-53.020 0-96 42.979-96 96zM352 592c0-17.674-14.326-32-32-32s-32 14.326-32 32c0 17.674 14.327 32 32 32s32-14.326 32-32zM372.013 531.216c17.133 14.672 27.987 36.461 27.987 60.784 0 44.182-35.818 80-80 80s-80-35.818-80-80c0-24.323 10.856-46.112 27.986-60.784-35.663-18.736-59.986-56.134-59.986-99.216v-11.078c0-20.39 16.531-36.922 36.923-36.922h150.156c20.39 0 36.922 16.531 36.922 36.922v11.078c0 43.082-24.323 80.48-59.987 99.216zM320 496c35.347 0 64-28.653 64-64h-128c0 35.347 28.654 64 64 64zM512 632c-13.254 0-24-10.746-24-24s10.746-24 24-24h288c13.254 0 24 10.746 24 24s-10.746 24-24 24h-288zM488 448c0 13.254 10.746 24 24 24h288c13.254 0 24-10.746 24-24s-10.746-24-24-24h-288c-13.254 0-24 10.746-24 24zM224 312c-13.255 0-24-10.746-24-24s10.745-24 24-24h576c13.254 0 24 10.746 24 24s-10.746 24-24 24h-576z" />
<glyph unicode="&#xe906;" glyph-name="domain-line-big" d="M160 864h704c53.12 0 96-42.88 96-96v-512c0-53.12-42.88-96-96-96h-165.76l15.040-46.72c11.84-36.16-15.36-73.28-53.44-73.28h-296c-38.080 0-64.96 37.12-53.44 73.28l15.36 46.72h-165.76c-53.12 0-96 42.88-96 96v512c0 53.12 42.88 96 96 96zM363.84 88h296.32c5.44 0 9.28 5.44 7.68 10.56l-17.6 54.080c-0.96 2.56-1.28 4.8-1.28 7.36h-273.92c0-2.56-0.32-4.8-1.28-7.36l-17.6-54.080c-1.6-5.12 2.24-10.56 7.68-10.56zM864 208c26.56 0 48 21.44 48 48v512c0 26.56-21.44 48-48 48h-704c-26.56 0-48-21.44-48-48v-512c0-26.56 21.44-48 48-48h704zM784.96 581.12c2.88 8.32 11.84 12.8 20.16 10.24 8.32-2.88 12.8-11.84 10.24-20.16l-40.32-125.76c-2.24-6.72-8.32-11.2-15.36-11.2s-13.12 4.48-15.36 11.2l-25.28 78.4-25.28-78.4c-2.24-6.72-8.32-11.2-15.36-11.2s-13.12 4.48-15.36 11.2l-40.32 125.76c-2.88 8.32 1.92 17.6 10.24 20.16 8.32 2.88 17.6-1.92 20.16-10.24l25.28-78.4 25.28 78.4c2.24 6.72 8.32 11.2 15.36 11.2s13.12-4.48 15.36-11.2l25.28-78.4 25.28 78.4zM370.56 580.8c2.56 8.64 11.517 13.12 20.16 10.56 8.32-2.88 12.8-11.84 10.24-20.16l-40-125.76c-2.24-6.72-8.32-11.2-15.36-11.2s-13.123 4.48-15.36 11.2l-25.282 78.4-25.28-78.4c-2.24-6.72-8.32-11.2-15.36-11.2s-13.12 4.48-15.36 11.2l-40.32 125.76c-2.56 8.32 1.92 17.28 10.56 20.16 8.32 2.56 17.28-1.92 20.16-10.56l24.96-78.4 25.28 78.4c2.24 6.72 8.32 11.2 15.36 11.2 6.72 0 13.12-4.48 15.040-11.2l25.282-78.4 25.28 78.4zM597.76 591.36c-8.32 2.56-17.28-1.92-19.84-10.56l-25.28-78.4-25.28 78.4c-2.24 6.72-8.32 11.2-15.36 11.2s-13.12-4.48-15.040-10.88l-25.28-78.4-25.28 78.4c-2.88 8.32-11.84 12.8-20.16 10.24-8.32-2.88-12.8-11.84-10.24-20.16l40-125.76c2.24-6.72 8.32-11.2 15.36-11.2s13.12 4.48 15.36 11.2l25.28 78.4 24.96-78.4c2.24-6.72 8.32-11.2 15.36-11.2s13.12 4.48 15.36 11.2l40.32 125.76c2.88 8.32-1.92 17.6-10.24 20.16z" />
<glyph unicode="&#xe907;" glyph-name="global-line-big" d="M536 895.36v0.64h-48v-0.64c-236.16-12.48-424-208-424-447.36s187.84-434.88 424-447.36v-0.64h48v0.64c236.16 12.48 424 208 424 447.36s-187.84 434.88-424 447.36zM384.64 827.52c-44.8-53.12-79.36-132.8-97.6-227.52h-145.28c44.16 106.88 132.8 190.4 242.88 227.52zM125.76 344c-8.96 32.96-13.76 67.84-13.76 104s4.8 71.040 13.76 104c0.64 0 1.6 0 2.24 0h151.68c-4.16-33.28-6.4-68.16-6.4-104s2.24-70.72 6.4-104h-151.68c-0.64 0-1.6 0-2.24 0zM141.76 296h145.28c18.24-94.72 53.12-174.4 97.6-227.52-110.080 37.12-199.040 120.64-242.88 227.52zM488 51.52c-33.6 10.24-70.4 41.92-102.72 102.080-20.8 39.36-38.080 87.68-49.28 142.080h152v-244.16zM488 344h-160c-4.48 32.96-7.040 67.84-7.040 104s2.56 71.040 6.72 104h160.32v-208zM488 600h-152c11.2 54.72 28.48 103.040 49.28 142.080 32.32 60.48 69.12 92.16 102.72 102.4v-244.48zM882.24 600h-145.28c-18.24 94.72-52.8 174.4-97.6 227.52 110.080-37.12 198.72-120.64 242.88-227.52zM536 844.48c33.6-10.24 70.4-41.92 102.72-102.080 20.8-39.36 38.080-87.68 49.28-142.080h-152v244.16zM536 552h160c4.48-32.96 7.040-67.84 7.040-104s-2.56-71.040-7.040-104h-160v208zM536 51.52v244.16h152c-11.2-54.4-28.48-102.72-49.28-142.080-32.32-60.16-69.12-91.84-102.72-102.080zM639.040 68.48c44.8 52.8 79.36 132.8 97.6 227.52h145.28c-43.84-106.88-132.48-190.4-242.88-227.52zM896 344h-151.68c4.16 33.28 6.4 68.16 6.4 104s-2.24 70.72-6.4 104h151.68c0.64 0 1.6 0 2.24 0 8.96-32.96 13.76-68.16 13.76-104s-4.8-70.72-13.76-104c-0.64 0-1.6 0-2.24 0z" />
<glyph unicode="&#xe908;" glyph-name="orderlist-line-big" d="M288 48c-44.183 0-80 35.818-80 80v640c0 44.183 35.817 80 80 80h332.374v-176.070c0-30.928 25.072-56 56-56h139.626v-487.93c0-44.182-35.818-80-80-80h-448zM794.554 699.324c9.36-10.053 15.898-22.261 19.13-35.395h-137.309c-4.419 0-8 3.581-8 8v160.767c4.118-2.996 7.974-6.4 11.498-10.186l114.682-123.187zM864 644.813c0 32.365-12.259 63.529-34.314 87.218l-114.682 123.187c-24.214 26.009-58.15 40.782-93.686 40.782h-333.318c-70.692 0-128-57.308-128-128v-640c0-70.691 57.308-128 128-128h448c70.691 0 128 57.309 128 128v516.813zM320 631.994h224c13.254 0 24-10.746 24-24 0-13.258-10.746-24-24-24h-224c-13.255 0-24 10.742-24 24 0 13.254 10.745 24 24 24zM296 431.994c0-13.258 10.745-24 24-24h384c13.254 0 24 10.742 24 24 0 13.254-10.746 24-24 24h-384c-13.255 0-24-10.746-24-24zM320 279.994h384c13.254 0 24-10.746 24-24 0-13.258-10.746-24-24-24h-384c-13.255 0-24 10.742-24 24 0 13.254 10.745 24 24 24z" />
<glyph unicode="&#xe909;" glyph-name="payment-add-line-big" d="M848 776c30.928 0 56-25.072 56-56v-112h-784v112c0 30.928 25.072 56 56 56h672zM120 560h784v-119.072c-39.405 24.755-86.029 39.072-136 39.072-141.386 0-256-114.614-256-256 0-13.606 1.062-26.966 3.107-40h-339.107c-30.928 0-56 25.072-56 56v320zM176 136h351.526c35.885-98.035 130.010-168 240.474-168 141.386 0 256 114.614 256 256 0 69.165-27.427 131.92-72 177.99v318.010c0 57.437-46.563 104-104 104h-672c-57.437 0-104-46.562-104-104v-480c0-57.437 46.563-104 104-104zM768 16c-114.874 0-208 93.123-208 208 0 114.874 93.126 208 208 208 114.877 0 208-93.126 208-208 0-114.877-93.123-208-208-208zM767.958 336c-13.258 0-24-10.746-24-24v-63.898h-63.958c-13.254 0-24-10.746-24-24s10.746-24 24-24h63.958v-64.019c0-13.254 10.742-24 24-24 13.254 0 24 10.746 24 24v64.019h63.958c13.254 0 24 10.746 24 24s-10.746 24-24 24h-63.958v63.898c0 13.254-10.746 24-24 24z" />
<glyph unicode="&#xe90a;" glyph-name="pencil-line-big" d="M864.96 756.48l-40.64 40.64c-46.72 46.72-122.88 46.72-169.6 0l-490.24-490.24c-14.72-14.72-23.68-34.24-25.6-55.040l-10.56-130.88c-2.88-34.56 25.92-63.36 60.48-60.48l131.2 10.56c20.8 1.6 40.32 10.88 55.040 25.6l489.92 490.24c46.72 46.4 46.72 122.56 0 169.6zM340.8 130.56c-6.72-6.72-15.68-10.88-24.96-11.52l-131.2-10.56c-4.8-0.32-8.96 3.84-8.64 8.64l10.88 131.2c0.64 9.6 4.8 18.24 11.52 24.96l378.24 377.92 142.4-142.4-378.24-378.24zM831.040 620.8l-78.080-78.080-142.4 142.4 78.080 78.080c28.16 28.16 73.6 28.16 101.76 0l40.64-40.64c28.16-28.16 28.16-73.6 0-101.76z" />
<glyph unicode="&#xe90b;" glyph-name="product-line-big" d="M144 249.341v379.594l344-179.478v-414.016l-318.757 171.638c-15.548 8.371-25.243 24.605-25.243 42.262zM536 35.44v414.013l344 179.478v-379.59c0-17.658-9.696-33.891-25.245-42.262l-318.755-171.638zM146.486 164.816l320-172.307c28.413-15.299 62.614-15.299 91.027 0l320 172.307c31.094 16.742 50.486 49.21 50.486 84.525v397.32c0 35.316-19.392 67.781-50.486 84.525l-320 172.308c-28.413 15.3-62.614 15.3-91.027 0l-320-172.308c-31.095-16.744-50.486-49.208-50.486-84.525v-397.32c0-35.315 19.391-67.782 50.486-84.525zM854.755 688.924c5.53-2.976 10.317-6.945 14.192-11.619l-0.048-0.024-356.899-186.209-356.945 186.234c3.875 4.673 8.662 8.642 14.188 11.618l320.002 172.308c14.205 7.65 31.306 7.65 45.514 0l319.997-172.308z" />
<glyph unicode="&#xe90c;" glyph-name="sale-line-big" d="M525.379 842.725c-7.651 7.033-19.107 7.033-26.758 0l-64.218-59.022c-22.506-20.687-52.253-31.706-82.861-30.506l-86.644 3.397c-9.877 0.388-19.297-6.949-20.812-18.181l-11.742-87.029c-4.075-30.203-19.699-57.742-43.729-76.613l-68.528-53.818c-8.375-6.576-10.701-18.938-4.815-28.403l46.226-74.314c16.111-25.901 21.513-57.078 15.144-86.877l-18.348-85.85c-2.386-11.162 4.098-21.648 13.754-24.787l82.565-26.826c29.109-9.459 53.21-30.042 67.29-57.114l40.416-77.712c5.046-9.699 16.035-13.389 25.254-9.574l80.272 33.213c28.291 11.706 60.022 11.706 88.314 0l80.272-33.213c9.219-3.814 20.208-0.125 25.254 9.574l40.416 77.712c14.080 27.072 38.179 47.654 67.29 57.114l82.566 26.826c9.654 3.139 16.138 13.626 13.754 24.787l-18.349 85.85c-6.371 29.798-0.966 60.976 15.142 86.877l46.227 74.314c5.885 9.466 3.558 21.827-4.816 28.403l-68.528 53.818c-24.032 18.87-39.654 46.41-43.728 76.613l-11.744 87.029c-1.514 11.232-10.934 18.569-20.813 18.181l-86.643-3.397c-30.608-1.2-60.355 9.818-82.861 30.506l-64.218 59.022zM466.141 878.065c26.016 23.913 65.702 23.913 91.718 0l64.218-59.022c13.232-12.163 30.646-18.583 48.502-17.883l86.64 3.397c35.104 1.377 65.507-24.466 70.262-59.726l11.744-87.029c2.419-17.933 11.686-34.193 25.808-45.281l68.528-53.818c27.763-21.805 34.656-61.395 15.926-91.504l-46.227-74.317c-9.526-15.312-12.742-33.802-8.963-51.491l18.349-85.85c7.434-34.781-12.41-69.6-45.859-80.47l-82.566-26.826c-17.014-5.53-31.21-17.597-39.536-33.61l-40.419-77.712c-16.374-31.485-53.667-45.235-86.189-31.779l-80.269 33.213c-16.544 6.845-35.072 6.845-51.616 0l-80.269-33.213c-32.522-13.456-69.814 0.294-86.19 31.779l-40.417 77.712c-8.329 16.013-22.524 28.080-39.538 33.61l-82.565 26.826c-33.452 10.87-53.294 45.69-45.86 80.47l18.348 85.85c3.781 17.69 0.563 36.179-8.963 51.491l-46.226 74.317c-18.729 30.109-11.837 69.699 15.927 91.504l68.528 53.818c14.121 11.088 23.387 27.347 25.807 45.281l11.742 87.029c4.757 35.26 35.159 61.103 70.262 59.726l86.644-3.397c17.853-0.7 35.267 5.72 48.499 17.883l64.218 59.022zM351.030 320.979l287.984 287.987c9.373 9.373 24.57 9.373 33.942 0s9.373-24.57 0-33.942l-287.987-287.984c-9.373-9.373-24.566-9.373-33.939 0s-9.373 24.566 0 33.939zM425.603 591.987c-15.904 15.904-41.693 15.904-57.597 0-15.907-15.907-15.907-41.693 0-57.597 15.904-15.907 41.693-15.907 57.597 0 15.904 15.904 15.904 41.69 0 57.597zM655.978 304.013c-15.904-15.904-41.693-15.904-57.597 0-15.904 15.907-15.904 41.693 0 57.597 15.904 15.907 41.693 15.907 57.597 0 15.904-15.904 15.904-41.69 0-57.597z" />
<glyph unicode="&#xe90d;" glyph-name="shipment-line-big" d="M956.794 697.602v-377.602c0-39.763-32.237-72-72-72h-22.461c-20.774 42.627-64.525 72-115.133 72-50.611 0-94.362-29.373-115.133-72h-187.267v449.6c0 30.928 25.072 56 56 56l399.994 0.001c30.928 0 56-25.072 56-56zM427.2 200h192.246c-0.163-2.646-0.246-5.312-0.246-8 0-70.691 57.306-128 128-128 70.691 0 128 57.309 128 128 0 2.688-0.083 5.354-0.246 8h9.84c66.272 0 120 53.725 120 120v377.602c0 57.438-46.563 104-104 104l-399.994-0.001c-57.44 0-104-46.563-104-104v-97.6h-194.841c-26.733 0-52.017-12.15-68.716-33.027l-94.76-118.451c-12.483-15.603-19.284-34.989-19.284-54.973v-137.549c0-30.928 25.072-56 56-56h64.246c-0.163-2.646-0.246-5.312-0.246-8 0-70.691 57.308-128 128-128s128.001 57.309 128.001 128c0 2.688-0.083 5.354-0.246 8h32.246zM382.333 248c-20.774 42.627-64.524 72-115.133 72s-94.36-29.373-115.132-72h-76.868c-4.419 0-8 3.581-8 8v137.549c0 9.085 3.091 17.898 8.765 24.989l94.76 118.451c7.591 9.488 19.084 15.011 31.235 15.011h194.841v-304h-14.467zM747.2 112c-44.182 0-80 35.818-80 80s35.818 80 80 80c44.182 0 80-35.818 80-80s-35.818-80-80-80zM347.2 192c0-44.182-35.818-80-80.001-80s-80 35.818-80 80c0 44.182 35.817 80 80 80s80.001-35.818 80.001-80z" />
<glyph unicode="&#xe90e;" glyph-name="shop-line-big" d="M930.883 120h-40v328h10.88c44.8 0 75.84 45.12 59.84 87.040l-85.76 224c-9.28 24.64-33.28 40.96-59.84 40.96h-602.241c-26.24 0-50.24-16.32-59.52-40.96l-85.76-224c-16.32-41.92 14.72-87.040 59.52-87.040h10.88v-328h-40c-13.12 0-24-10.88-24-24s10.88-24 24-24h832.001c13.12 0 24 10.88 24 24s-10.88 24-24 24zM425.283 752h179.84l35.52-256h-251.2l35.84 256zM128.002 496c-11.2 0-18.88 11.2-15.040 21.76l85.76 224c2.56 6.080 8.64 10.24 15.040 10.24h162.561l-35.52-256h-212.801zM618.883 120h-208v104c0 57.28 46.72 104 104 104s104-46.72 104-104v-104zM842.883 120h-176v104c0 83.84-68.16 152-152 152s-152-68.16-152-152v-104h-176.001v328h656.001v-328zM688.963 496l-35.52 256h162.56c6.72 0 12.48-4.16 15.040-10.24l85.76-224c4.16-10.56-3.84-21.76-15.040-21.76h-212.8z" />
<glyph unicode="&#xe90f;" glyph-name="account-circle-line" d="M835.533 203.785c-30.229 101.572-124.322 175.642-235.712 175.642h-175.639c-111.392 0-205.484-74.069-235.713-175.642-51.347 67.917-81.802 152.512-81.802 244.215 0 223.86 181.474 405.333 405.333 405.333s405.333-181.474 405.333-405.333c0-91.703-30.455-176.299-81.801-244.215zM781.355 145.101c-71.607-63.723-165.961-102.434-269.355-102.434s-197.745 38.711-269.352 102.434c5.967 95.066 84.961 170.325 181.533 170.325h175.639c96.572 0 175.565-75.255 181.534-170.325zM512-21.333c259.204 0 469.333 210.129 469.333 469.333 0 259.206-210.129 469.333-469.333 469.333-259.206 0-469.333-210.128-469.333-469.333 0-259.204 210.128-469.333 469.333-469.333zM512 478.43c-57.229 0-103.62 46.391-103.62 103.618s46.391 103.619 103.62 103.619c57.225 0 103.62-46.392 103.62-103.619s-46.396-103.618-103.62-103.618zM512 414.43c92.574 0 167.62 75.046 167.62 167.618s-75.046 167.619-167.62 167.619-167.62-75.046-167.62-167.619c0-92.571 75.046-167.618 167.62-167.618z" />
<glyph unicode="&#xe910;" glyph-name="add-circle-line" d="M512 42.667c223.859 0 405.333 181.474 405.333 405.333s-181.474 405.333-405.333 405.333c-223.86 0-405.333-181.474-405.333-405.333s181.474-405.333 405.333-405.333zM42.667 448c0 259.206 210.128 469.333 469.333 469.333 259.204 0 469.333-210.128 469.333-469.333 0-259.204-210.129-469.333-469.333-469.333-259.206 0-469.333 210.129-469.333 469.333zM543.991 641.354v-161.405h161.404c17.673 0 32-14.327 32-32s-14.327-32-32-32h-161.404v-161.408c0-17.673-14.327-32-32-32s-32 14.327-32 32v161.408h-161.408c-17.673 0-32 14.327-32 32s14.327 32 32 32h161.408v161.405c0 17.673 14.327 32 32 32s32-14.327 32-32z" />
<glyph unicode="&#xe911;" glyph-name="arrow-circle-right-line-big" d="M117.333 448c0 217.968 176.698 394.667 394.667 394.667 217.967 0 394.667-176.698 394.667-394.667 0-217.967-176.7-394.667-394.667-394.667-217.968 0-394.667 176.7-394.667 394.667zM512 906.667c-253.315 0-458.667-205.352-458.667-458.667s205.352-458.667 458.667-458.667c253.316 0 458.667 205.35 458.667 458.667 0 253.315-205.35 458.667-458.667 458.667zM619.959 425.374c6.003 5.999 9.374 14.14 9.374 22.626s-3.371 16.627-9.374 22.626l-128 128.001c-12.497 12.497-32.755 12.497-45.252 0s-12.497-32.758 0-45.255l105.37-105.373-105.37-105.374c-12.497-12.497-12.497-32.755 0-45.252s32.755-12.497 45.252 0l128 128z" />
<glyph unicode="&#xe912;" glyph-name="board-big" d="M170.667 789.333c-47.128 0-85.333-38.205-85.333-85.333v-107.91h211.81v193.244h-126.476zM361.143 789.333v-193.244h577.524v107.91c0 47.128-38.204 85.333-85.333 85.333h-492.19zM938.667 532.087h-577.524v-169.421h577.524v169.421zM938.667 290.133h-577.524v-183.467h492.19c47.13 0 85.333 38.204 85.333 85.333v98.133zM297.143 106.667v183.467h-211.81v-98.133c0-47.13 38.205-85.333 85.333-85.333h126.476zM85.333 362.667h211.81v169.421h-211.81v-169.421z" />
<glyph unicode="&#xe913;" glyph-name="board-line-big" d="M288 170.667v138.667h-138.667v-74.667c0-35.345 28.654-64 64-64h74.667zM352 106.667h-138.667c-70.693 0-128 57.306-128 128v426.667c0 70.692 57.308 128 128 128h597.333c70.694 0 128-57.308 128-128v-426.667c0-70.694-57.306-128-128-128h-458.667zM874.667 309.333h-522.667v-138.667h458.667c35.345 0 64 28.655 64 64v74.667zM874.667 373.333v149.333h-522.667v-149.333h522.667zM874.667 586.667v74.667c0 35.346-28.655 64-64 64h-458.667v-138.667h522.667zM288 725.333h-74.667c-35.346 0-64-28.654-64-64v-74.667h138.667v138.667zM149.333 522.667v-149.333h138.667v149.333h-138.667z" />
<glyph unicode="&#xe914;" glyph-name="cancle-square-line" d="M149.333 746.667v-597.333c0-35.345 28.654-64 64-64h597.333c35.345 0 64 28.655 64 64v597.333c0 35.346-28.655 64-64 64h-597.333c-35.346 0-64-28.654-64-64zM85.333 149.333v597.333c0 70.692 57.308 128 128 128h597.333c70.694 0 128-57.308 128-128v-597.333c0-70.694-57.306-128-128-128h-597.333c-70.693 0-128 57.306-128 128zM318.711 254.707c-12.497 12.497-12.497 32.755 0 45.252l148.041 148.041-148.041 148.040c-12.497 12.497-12.497 32.758 0 45.255s32.758 12.497 45.255 0l148.038-148.038 148.036 148.032c12.493 12.497 32.755 12.497 45.252 0s12.497-32.758 0-45.255l-148.032-148.034 148.032-148.032c12.497-12.497 12.497-32.759 0-45.257s-32.755-12.497-45.252 0l-148.036 148.032-148.039-148.036c-12.497-12.497-32.758-12.497-45.255 0z" />
<glyph unicode="&#xe915;" glyph-name="category-big" d="M863.147 490.24l-304.213 304.213c-24.32 23.893-56.747 37.547-90.88 37.547h-212.053c-70.827 0-128-57.173-128-128v-212.053c0-34.133 13.653-66.56 37.547-90.453l304.213-304.213c49.92-49.92 130.987-49.92 180.907 0l212.053 212.053c50.347 49.92 50.347 130.987 0.427 180.907zM376.32 500.48c-46.080 0-83.2 37.547-83.2 83.2 0 46.080 37.12 83.2 83.2 83.2s83.2-37.12 83.2-83.2c0-46.080-37.12-83.2-83.2-83.2z" />
<glyph unicode="&#xe916;" glyph-name="channelad" d="M512 874.667h-384c-47.128 0-85.333-38.205-85.333-85.333v-341.333c0-47.13 38.205-85.333 85.333-85.333h384c47.13 0 85.333 38.204 85.333 85.333v341.333c0 47.128-38.204 85.333-85.333 85.333zM938.667 277.333c23.565 0 42.667-19.102 42.667-42.667s-19.102-42.667-42.667-42.667h-853.333c-23.564 0-42.667 19.102-42.667 42.667s19.103 42.667 42.667 42.667h853.333zM85.333 106.667h469.333c23.565 0 42.667-19.102 42.667-42.667s-19.102-42.667-42.667-42.667h-469.333c-23.564 0-42.667 19.102-42.667 42.667s19.103 42.667 42.667 42.667zM768 874.667h128c47.13 0 85.333-38.205 85.333-85.333v-341.333c0-47.13-38.204-85.333-85.333-85.333h-128c-47.13 0-85.333 38.204-85.333 85.333v341.333c0 47.128 38.204 85.333 85.333 85.333z" />
<glyph unicode="&#xe917;" glyph-name="customer-manage-line" d="M128 672v-448c0-35.345 28.654-64 64-64h640c35.345 0 64 28.655 64 64v448c0 35.346-28.655 64-64 64h-640c-35.346 0-64-28.654-64-64zM64 224v448c0 70.692 57.308 128 128 128h640c70.694 0 128-57.308 128-128v-448c0-70.694-57.306-128-128-128h-640c-70.693 0-128 57.306-128 128zM307.198 586.667c0 17.673 14.327 32 32 32s32-14.327 32-32c0-17.673-14.327-32-32-32s-32 14.327-32 32zM418.999 533.282c10.232 15.266 16.201 33.628 16.201 53.385 0 53.019-42.983 96-96.002 96s-96-42.981-96-96c0-19.756 5.968-38.119 16.199-53.385-35.458-23.322-58.866-63.467-58.866-109.077 0-33.988 27.552-61.538 61.539-61.538h154.256c33.987 0 61.541 27.55 61.541 61.538 0 45.611-23.411 85.756-58.868 109.077zM339.198 490.667h-8.205c-35.881 0-65.122-28.433-66.417-64h149.244c-1.295 35.567-30.535 64-66.417 64h-8.205zM554.667 650.667c-17.673 0-32-14.327-32-32s14.327-32 32-32h234.667c17.673 0 32 14.327 32 32s-14.327 32-32 32h-234.667zM522.667 448c0 17.673 14.327 32 32 32h234.667c17.673 0 32-14.327 32-32s-14.327-32-32-32h-234.667c-17.673 0-32 14.327-32 32zM224 309.333c-17.673 0-32-14.327-32-32s14.327-32 32-32h576c17.673 0 32 14.327 32 32s-14.327 32-32 32h-576z" />
<glyph unicode="&#xe918;" glyph-name="dashboard-big" d="M754.765 499.785c103.518 0 187.439 83.921 187.439 187.442s-83.921 187.44-187.439 187.44c-103.522 0-187.443-83.92-187.443-187.44s83.921-187.442 187.443-187.442zM304.66 861.411c-8.211 14.222-28.739 14.223-36.95 0l-179.487-310.88c-8.211-14.223 2.053-31.999 18.475-31.999h358.974c16.422 0 26.688 17.776 18.475 31.999l-179.487 310.88zM98.729 363.401c0 23.565 19.103 42.667 42.667 42.667h289.547c23.565 0 42.667-19.102 42.667-42.667v-289.549c0-23.561-19.102-42.667-42.667-42.667h-289.547c-23.564 0-42.667 19.106-42.667 42.667v289.549zM609.988 406.067c-23.565 0-42.667-19.102-42.667-42.667v-289.549c0-23.561 19.102-42.667 42.667-42.667h289.549c23.565 0 42.667 19.106 42.667 42.667v289.549c0 23.565-19.102 42.667-42.667 42.667h-289.549z" />
<glyph unicode="&#xe919;" glyph-name="detailsearch-line" d="M898.859 809.585h-780.984c-17.789 0-32.541 14.752-32.541 32.541s14.752 32.541 32.541 32.541h780.984c17.788 0 32.542-14.752 32.542-32.541s-14.754-32.541-32.542-32.541zM117.874 93.683h260.328c17.789 0 32.541-14.754 32.541-32.542s-14.752-32.542-32.541-32.542h-260.328c-17.789 0-32.541 14.754-32.541 32.542s14.752 32.542 32.541 32.542zM117.874 614.34h780.984c17.788 0 32.542 14.752 32.542 32.541s-14.754 32.541-32.542 32.541h-780.984c-17.789 0-32.541-14.752-32.541-32.541s14.752-32.541 32.541-32.541zM117.874 484.173h260.328c17.789 0 32.541-14.75 32.541-32.538 0-17.792-14.752-32.542-32.541-32.542h-260.328c-17.789 0-32.541 14.75-32.541 32.542 0 17.788 14.752 32.538 32.541 32.538zM378.202 288.93h-260.328c-17.789 0-32.541-14.754-32.541-32.542s14.752-32.542 32.541-32.542h260.328c17.789 0 32.541 14.754 32.541 32.542s-14.752 32.542-32.541 32.542zM809.916 193.476l116.715-117.15c13.018-12.582 13.018-32.973 0-45.555-12.582-12.582-33.408-12.582-45.99 0l-119.753 119.748c-68.553-40.35-157.931-31.671-216.939 27.337-69.854 69.854-69.854 183.095 0 252.949 69.854 69.858 183.095 69.858 252.954 0 65.079-65.079 68.983-167.044 13.013-237.329zM593.412 228.186c42.086-42.086 109.769-42.086 151.855 0s42.086 109.773 0 151.859c-42.086 42.086-109.769 42.086-151.855 0s-42.086-109.773 0-151.859z" />
<glyph unicode="&#xe91a;" glyph-name="domain-big" d="M387.987 878.614c-177.252-50.955-309.437-208.39-322.862-398.614h191.529c6.040 147.382 53.616 284.051 131.332 398.614zM479.987 894.874c-93.648-113.873-152.24-257.665-159.273-414.874h382.573c-7.036 157.208-65.626 301.001-159.275 414.874-10.577 0.746-21.248 1.126-32.013 1.126s-21.44-0.38-32.013-1.126zM636.015 878.614c77.713-114.563 125.291-251.232 131.332-398.614h191.526c-13.423 190.224-145.609 347.66-322.859 398.614zM958.874 416h-191.526c-6.042-147.383-53.619-284.049-131.332-398.613 177.25 50.953 309.436 208.388 322.859 398.613zM544.013 1.126c93.649 113.873 152.239 257.664 159.275 414.874h-382.573c7.033-157.21 65.625-301.001 159.273-414.874 10.573-0.747 21.248-1.126 32.013-1.126s21.436 0.38 32.013 1.126zM387.987 17.387c-77.716 114.564-125.292 251.23-131.332 398.613h-191.529c13.425-190.225 145.609-347.661 322.862-398.613z" />
<glyph unicode="&#xe91b;" glyph-name="domain-line" d="M192 864h640c70.827 0 128-57.173 128-128v-448c0-70.827-57.173-128-128-128h-125.44l9.813-30.293c15.787-48.213-20.48-97.707-71.253-97.707h-266.667c-50.773 0-86.613 49.493-71.253 97.707l9.813 30.293h-125.013c-70.827 0-128 57.173-128 128v448c0 70.827 57.173 128 128 128zM379.733 96h265.813c7.253 0 12.373 7.253 10.24 14.080s-14.507 49.92-14.507 49.92h-258.133c0 0-12.8-41.813-14.933-49.92s3.413-14.080 11.52-14.080zM832 224c35.413 0 64 28.587 64 64v448c0 35.413-28.587 64-64 64h-640c-35.413 0-64-28.587-64-64v-448c0-35.413 28.587-64 64-64h640zM354.558 582.402c3.84 11.52 15.787 17.493 27.307 14.080 11.093-3.84 17.067-15.787 13.653-26.88l-40.107-125.869c-2.987-8.96-11.093-14.933-20.48-14.933s-17.493 5.973-20.48 14.933l-20.053 62.72-20.053-62.72c-2.987-8.96-11.093-14.933-20.48-14.933s-17.493 5.973-20.48 14.933l-40.533 125.869c-3.413 11.093 2.56 23.040 14.080 26.88 11.093 3.413 23.040-2.56 26.88-14.080l20.053-62.295 19.627 62.295c2.987 8.96 11.093 14.933 20.48 14.933s17.493-5.973 20.48-14.933l20.053-62.295 20.053 62.295zM599.467 596.053c-11.093 3.84-23.467-2.56-26.88-13.653l-20.053-62.72-20.053 62.72c-2.987 8.96-11.093 14.933-20.48 14.933s-17.493-5.973-20.48-14.933l-20.053-62.72-20.053 62.72c-3.413 11.52-15.36 17.493-26.88 14.080-11.093-3.84-17.067-15.787-13.653-26.88l40.107-125.867c2.987-8.96 11.093-14.933 20.48-14.933s17.493 5.973 20.48 14.933l20.053 62.72 19.627-63.147c2.987-8.96 11.093-14.933 20.48-14.933s17.493 5.973 20.48 14.933l40.533 125.867c3.84 11.093-2.56 23.467-13.653 26.88zM791.040 582.4c3.84 11.093 15.787 17.067 26.88 13.653 11.093-3.84 17.067-15.787 13.653-26.88l-40.533-125.867c-2.987-8.96-11.093-14.933-20.48-14.933s-17.493 5.973-20.48 14.933l-20.053 62.72-20.053-62.72c-2.987-8.96-11.093-14.933-20.48-14.933s-17.493 5.973-20.48 14.933l-40.533 125.867c-3.84 11.093 2.56 23.467 13.653 26.88 11.093 3.84 23.467-2.56 26.88-13.653l19.627-62.72 20.053 62.72c2.987 8.96 11.093 14.933 20.48 14.933s17.493-5.973 20.48-14.933l21.333-62.72 20.053 62.72z" />
<glyph unicode="&#xe91c;" glyph-name="exchange-line" d="M149.333 149.333v597.333c0 35.346 28.654 64 64 64h597.333c35.345 0 64-28.654 64-64v-597.333c0-35.345-28.655-64-64-64h-597.333c-35.346 0-64 28.655-64 64zM85.333 746.667v-597.333c0-70.694 57.307-128 128-128h597.333c70.694 0 128 57.306 128 128v597.333c0 70.692-57.306 128-128 128h-597.333c-70.692 0-128-57.308-128-128zM451.251 713.818c11.311-13.577 9.476-33.755-4.1-45.069l-60.098-50.083h338.28c17.673 0 32-14.327 32-32s-14.327-32-32-32h-338.282l60.099-50.086c13.577-11.311 15.411-31.492 4.1-45.069-11.315-13.577-31.494-15.411-45.071-4.096l-128 106.667c-7.296 6.080-11.514 15.087-11.514 24.583s4.218 18.503 11.514 24.583l128 106.667c13.577 11.314 33.755 9.48 45.071-4.097zM298.668 341.333c-17.673 0-32-14.327-32-32s14.327-32 32-32h338.282l-60.1-50.082c-13.577-11.315-15.411-31.492-4.096-45.069 11.311-13.577 31.492-15.411 45.069-4.096l128 106.667c7.296 6.076 11.511 15.083 11.511 24.58s-4.215 18.505-11.511 24.585l-128 106.667c-13.577 11.315-33.758 9.481-45.069-4.096-11.315-13.581-9.481-33.758 4.096-45.069l60.1-50.086h-338.282z" />
<glyph unicode="&#xe91d;" glyph-name="facebook-circle" d="M512.009 917.333c-259.211 0-469.342-210.131-469.342-469.342 0-234.88 172.54-429.466 397.79-463.919v329.596h-120.457v134.852h120.457v92.268c0 54.414 15.59 167.502 134.63 184.532 70.857 10.137 134.626 0.005 141.713-7.095v-113.559h-56.687c-25.98 0-77.943-14.195-77.943-70.975v-85.17h134.63l-21.257-134.852h-113.374v-329.809c225.929 33.869 399.181 228.77 399.181 464.132 0 259.211-210.133 469.342-469.342 469.342zM515.93-21.333h-7.842c1.306-0.009 2.611-0.017 3.921-0.017 1.306 0 2.615 0.009 3.921 0.017z" />
<glyph unicode="&#xe91e;" glyph-name="facebook" d="M761.438 760.869v142.218c-9.028 8.892-90.257 21.581-180.514 8.886-151.633-21.327-171.488-162.956-171.488-231.102v-115.552h-153.436v-168.885h153.436v-417.766h180.512v417.766h144.41l27.081 168.885h-171.49v106.664c0 71.109 66.189 88.887 99.281 88.887h72.209z" />
<glyph unicode="&#xe91f;" glyph-name="flag-big" d="M170.667 810.667v-768c0-23.565 19.103-42.667 42.667-42.667s42.667 19.102 42.667 42.667v768c0 23.564-19.103 42.667-42.667 42.667s-42.667-19.103-42.667-42.667zM341.245 852.001l556.087 1.157c34.91 0.073 55.13-39.528 34.594-67.762l-103.006-141.635c-10.884-14.961-10.884-35.229 0-50.191l103.134-141.808c20.51-28.203 0.363-67.763-34.509-67.763h-556.211c-23.564 0-42.667 19.102-42.667 42.667v382.668c0 23.529 19.049 42.618 42.578 42.666z" />
<glyph unicode="&#xe920;" glyph-name="global-line" d="M544 894.72v1.28h-64v-1.28c-232.533-16.213-416-209.92-416-446.72s183.467-430.507 416-446.72v-1.28h64v1.28c232.533 16.213 416 209.92 416 446.72s-183.467 430.507-416 446.72zM366.507 803.413c-34.56-49.92-61.867-117.333-77.653-195.413h-125.867c40.533 88.32 113.493 158.72 203.52 195.413zM128 448c0 33.28 4.267 65.28 11.947 96h138.667c-3.84-30.72-5.547-63.147-5.547-96s1.707-65.28 5.547-96h-138.667c-7.68 30.72-11.947 62.72-11.947 96zM162.987 288h125.867c15.787-78.080 43.093-145.493 77.653-195.413-90.027 36.693-162.987 107.093-203.52 195.413zM480 288v-215.893c-25.173 11.947-53.76 39.253-80.64 89.6-18.773 34.987-34.56 78.080-45.227 126.72h125.867v-0.427zM480 352h-136.96c-3.84 30.72-5.973 62.72-5.973 96s2.133 65.28 5.973 96h136.96v-192zM480 608h-125.867c11.093 48.64 26.453 91.733 45.227 126.72 26.88 49.92 55.040 77.227 80.64 89.6v-216.32zM861.013 608h-126.293c-15.787 78.080-43.093 145.493-77.653 195.413 90.453-36.693 163.413-107.093 203.947-195.413zM544 608v215.893c25.173-11.947 53.76-39.253 80.64-89.6 18.773-34.987 34.56-78.080 45.227-126.72h-125.867v0.427zM544 544h136.96c3.84-30.72 5.973-62.72 5.973-96s-2.133-65.28-5.973-96h-136.96v192zM544 71.68v216.32h125.867c-11.093-48.64-26.453-91.733-45.227-126.72-26.88-49.92-55.040-77.227-80.64-89.6zM657.493 92.587c34.56 49.92 61.867 117.333 78.080 195.413h125.867c-40.533-88.32-113.92-158.293-203.947-195.413zM745.387 352c3.84 30.72 5.547 63.147 5.547 96s-2.133 65.28-5.547 96h138.667c7.68-30.72 11.947-62.72 11.947-96s-3.84-65.28-11.947-96h-138.667z" />
<glyph unicode="&#xe921;" glyph-name="grade-big" d="M853.333 533.333c0-120.252-62.187-225.98-156.151-286.784l23.364-186.914c2.082-16.649-14.985-29.073-30.191-21.978l-169.335 79.023c-5.717 2.667-12.322 2.667-18.039 0l-169.336-79.023c-15.205-7.095-32.271 5.329-30.19 21.978l23.365 186.914c-93.967 60.804-156.152 166.532-156.152 286.784 0 188.513 152.82 341.333 341.333 341.333s341.333-152.82 341.333-341.333zM556.066 611.050l-27.836 85.662c-5.107 15.724-27.354 15.724-32.461 0l-27.836-85.662c-2.283-7.032-8.836-11.793-16.23-11.793h-90.070c-16.533 0-23.407-21.156-10.031-30.874l72.868-52.94c5.981-4.348 8.485-12.053 6.198-19.085l-27.831-85.662c-5.109-15.723 12.887-28.796 26.261-19.081l72.87 52.941c5.982 4.348 14.080 4.348 20.062 0l72.87-52.941c13.376-9.715 31.369 3.358 26.261 19.081l-27.831 85.662c-2.287 7.031 0.218 14.737 6.199 19.085l72.866 52.94c13.376 9.718 6.502 30.874-10.031 30.874h-90.069c-7.394 0-13.948 4.761-16.23 11.793z" />
<glyph unicode="&#xe922;" glyph-name="img" d="M829.197 662.956c42.261 0 76.518 34.26 76.518 76.522s-34.257 76.522-76.518 76.522c-42.261 0-76.523-34.26-76.523-76.522s34.261-76.522 76.523-76.522zM580.177 399.957c16.58-28.164 57.374-27.994 73.719 0.311l35.179 60.932c16.422 28.446 57.476 28.446 73.899 0l164.672-285.218c16.422-28.446-4.105-64-36.949-64h-402.799c-0.196 0-0.32 0.213-0.222 0.384 0.098 0.175-0.026 0.388-0.222 0.388h-352.79c-33.005 0-53.512 35.866-36.769 64.311l269.977 458.62c16.5 28.029 57.038 28.029 73.536 0l138.769-235.729z" />
<glyph unicode="&#xe923;" glyph-name="info-big" d="M539.883 649.952c62.054 0 112.358 50.304 112.358 112.357s-50.304 112.357-112.358 112.357c-62.050 0-112.354-50.304-112.354-112.357s50.304-112.357 112.354-112.357zM320.277 570.788c-2.554-17.875 12.768-25.537 35.75-30.643 3.732-0.829 8.070-1.457 12.676-2.122 23.753-3.434 54.612-7.894 46.057-46.396-8.31-37.393-33.523-193.105-45.385-266.364-2.718-16.789-4.735-29.244-5.687-34.957-0.332-1.993-0.751-4.233-1.21-6.694-6.603-35.358-21.628-115.814 90.586-151.629 120.017-38.302 234.927 35.75 245.141 79.164 10.214 43.409-33.195 22.98-45.965 15.322-12.766-7.663-81.715-45.965-86.822 2.551-3.469 32.951 20.151 168.367 38.067 271.070 8.465 48.525 15.654 89.749 18.112 109.414 7.663 61.284 2.556 84.266-45.965 89.373-48.516 5.107-135.339 2.555-183.856 0s-68.946-10.214-71.5-28.089z" />
<glyph unicode="&#xe924;" glyph-name="instagram-line" d="M512 832.764c125.325 0 140.151-0.484 189.645-2.726 45.747-2.089 70.609-9.731 87.142-16.15 21.905-8.508 37.547-18.697 53.973-35.101 16.431-16.43 26.594-32.070 35.102-53.977 6.421-16.532 14.063-41.393 16.149-87.142 2.27-49.493 2.726-64.344 2.726-189.644s-0.482-140.151-2.726-189.645c-2.086-45.747-9.728-70.609-16.149-87.142-8.508-21.905-18.697-37.547-35.102-53.973-16.427-16.431-32.068-26.594-53.973-35.102-16.533-6.421-41.395-14.063-87.142-16.149-49.493-2.27-64.32-2.726-189.645-2.726s-140.176 0.482-189.644 2.726c-45.748 2.086-70.61 9.728-87.142 16.149-21.907 8.508-37.547 18.697-53.977 35.102-16.43 16.427-26.593 32.068-35.101 53.973-6.419 16.533-14.061 41.395-16.149 87.142-2.267 49.493-2.726 64.346-2.726 189.645s0.484 140.15 2.726 189.644c2.089 45.749 9.731 70.61 16.149 87.142 8.508 21.906 18.697 37.547 35.101 53.977 16.43 16.43 32.070 26.593 53.977 35.101 16.532 6.419 41.393 14.061 87.142 16.15 49.493 2.242 64.319 2.726 189.644 2.726zM512 917.333c-127.465 0-143.436-0.535-193.516-2.828-49.952-2.267-84.060-10.214-113.914-21.804-30.873-11.998-57.033-28.046-83.117-54.129-26.109-26.109-42.157-52.27-54.155-83.143-11.59-29.854-19.537-63.962-21.804-113.939-2.292-50.054-2.828-66.025-2.828-193.49 0-127.467 0.535-143.437 2.828-193.515 2.267-49.954 10.214-84.087 21.804-113.941 11.998-30.874 28.046-57.033 54.129-83.115 26.084-26.086 52.27-42.133 83.117-54.131 29.854-11.588 63.962-19.537 113.939-21.803 50.054-2.295 66.051-2.829 193.516-2.829 127.467 0 143.437 0.533 193.515 2.829 49.954 2.266 84.087 10.214 113.941 21.803 30.874 11.998 57.033 28.045 83.115 54.131 26.086 26.082 42.133 52.267 54.131 83.115 11.588 29.854 19.537 63.962 21.803 113.941 2.295 50.052 2.829 66.048 2.829 193.515 0 127.465-0.533 143.436-2.829 193.516-2.266 49.952-10.214 84.085-21.803 113.939-11.998 30.873-28.045 57.033-54.131 83.117-26.082 26.084-52.267 42.132-83.115 54.129-29.879 11.59-63.987 19.537-113.941 21.804-50.052 2.292-66.048 2.828-193.515 2.828zM512.004 688.996c-133.094 0-241.022-107.902-241.022-241.021s107.902-241.020 241.022-241.020c133.12 0 241.024 107.9 241.024 241.020s-107.904 241.021-241.024 241.021zM512.004 291.546c-86.403 0-156.453 70.050-156.453 156.454 0 86.403 70.050 156.452 156.453 156.452s156.454-70.049 156.454-156.452c0-86.404-70.050-156.454-156.454-156.454zM818.871 698.523c0-31.105-25.216-56.32-56.32-56.32-31.108 0-56.32 25.215-56.32 56.32s25.212 56.32 56.32 56.32c31.104 0 56.32-25.216 56.32-56.32z" />
<glyph unicode="&#xe925;" glyph-name="list-new-ilne" d="M928 682.667c0-106.24-85.76-192-192-192s-192 85.76-192 192c0 106.24 85.76 192 192 192s192-85.76 192-192zM708.693 765.013h-55.040v-164.693h55.040v82.347l55.040-82.347h55.040v164.693h-55.040v-82.347l-55.040 82.347zM458.667 629.333h-341.333c-17.493 0-32 14.507-32 32s14.507 32 32 32h341.333c17.493 0 32-14.507 32-32s-14.507-32-32-32zM885.333 96h-768c-17.493 0-32-14.507-32-32s14.507-32 32-32h768c17.493 0 32 14.507 32 32s-14.507 32-32 32zM117.333 394.667h768c17.493 0 32-14.507 32-32s-14.507-32-32-32h-768c-17.493 0-32 14.507-32 32s14.507 32 32 32z" />
<glyph unicode="&#xe926;" glyph-name="naver" d="M85.333 64v768h296.812l259.711-396.386v396.386h296.811v-768h-309.18l-247.342 371.614v-371.614h-296.812z" />
<glyph unicode="&#xe927;" glyph-name="order-big" d="M34.62 837.25c0 23.564 19.103 42.667 42.667 42.667h142.040c20.501 0 38.104-14.581 41.921-34.723l26.976-142.366h630.236c13.099 0 25.468-6.015 33.557-16.316s10.999-23.746 7.893-36.469l-86.468-354.179c-4.663-19.106-21.781-32.546-41.446-32.546h-512.001c-20.501 0-38.104 14.579-41.921 34.722l-94.089 496.544h-106.699c-23.564 0-42.667 19.102-42.667 42.667zM426.662 106.667c0-47.13-38.205-85.333-85.333-85.333s-85.333 38.204-85.333 85.333c0 47.13 38.205 85.333 85.333 85.333s85.333-38.204 85.333-85.333zM853.329 106.667c0-47.13-38.208-85.333-85.333-85.333-47.13 0-85.333 38.204-85.333 85.333s38.204 85.333 85.333 85.333c47.125 0 85.333-38.204 85.333-85.333z" />
<glyph unicode="&#xe928;" glyph-name="order-line-big" d="M64.609 895.388c-17.673 0-32-14.327-32-32s14.327-32 32-32h85.105l104.603-519.409c11.030-54.771 59.152-94.17 115.024-94.17h423.064c57.306 0 106.223 41.391 115.716 97.903l48.384 288.117c7.646 45.539-27.46 87.033-73.638 87.033h-639.568l-36.017 178.844c-3.008 14.938-16.132 25.682-31.37 25.682h-111.302zM317.057 324.612l-60.869 302.25h626.679c6.596 0 11.614-5.928 10.522-12.433l-48.384-288.118c-4.314-25.685-26.551-44.501-52.599-44.501h-423.064c-25.396 0-47.27 17.907-52.284 42.803zM421.856 65.25c0-37.338-30.268-67.605-67.605-67.605s-67.605 30.268-67.605 67.605c0 37.338 30.268 67.605 67.605 67.605s67.605-30.268 67.605-67.605zM846.477 65.25c0-37.338-30.268-67.605-67.605-67.605s-67.605 30.268-67.605 67.605c0 37.338 30.268 67.605 67.605 67.605s67.605-30.268 67.605-67.605z" />
<glyph unicode="&#xe929;" glyph-name="orderlist-line" d="M818.347 720.64l-108.373 114.347c-24.32 25.173-58.027 39.68-93.013 39.68h-318.293c-70.827 0-128-57.173-128-128v-597.333c0-70.827 57.173-128 128-128h426.667c70.827 0 128 57.173 128 128v482.987c0 32.853-12.373 64.427-34.987 88.32zM676.267 776.96l95.573-100.693c0.64-0.64 1.28-1.387 1.92-2.133s1.28-1.493 1.92-2.133h-88.747c-5.973 0-10.667 4.693-10.667 10.667v94.293zM789.333 149.333c0-35.413-28.587-64-64-64h-426.667c-35.413 0-64 28.587-64 64v597.333c0 35.413 28.587 64 64 64h313.6v-128c0-41.387 33.28-74.667 74.667-74.667h102.4v-458.667zM512 586.667h-170.667c-17.493 0-32 14.507-32 32s14.507 32 32 32h170.667c17.493 0 32-14.507 32-32s-14.507-32-32-32zM309.333 448c0 17.493 14.507 32 32 32h341.333c17.493 0 32-14.507 32-32s-14.507-32-32-32h-341.333c-17.493 0-32 14.507-32 32zM309.333 277.333c0 17.493 14.507 32 32 32h341.333c17.493 0 32-14.507 32-32s-14.507-32-32-32h-341.333c-17.493 0-32 14.507-32 32z" />
<glyph unicode="&#xe92a;" glyph-name="payment-add-line" d="M896 682.667c0 41.237-33.429 74.667-74.667 74.667h-618.667c-41.237 0-74.667-33.429-74.667-74.667v-85.333h768v85.333zM128 256c0-41.237 33.429-74.667 74.667-74.667h311.313c-1.306 10.483-1.98 21.163-1.98 32 0 141.385 114.615 256 256 256 46.63 0 90.347-12.467 128-34.249v98.249h-768v-277.333zM530.607 117.333h-327.94c-76.584 0-138.667 62.084-138.667 138.667v426.667c0 76.583 62.083 138.667 138.667 138.667h618.667c76.582 0 138.667-62.083 138.667-138.667v-298.667h-1.186c40.538-45.291 65.186-105.101 65.186-170.667 0-141.385-114.615-256-256-256-107.435 0-199.415 66.18-237.393 160zM960 213.333c0 106.039-85.961 192-192 192s-192-85.961-192-192c0-106.039 85.961-192 192-192s192 85.961 192 192zM669.867 211.213c0-17.673 14.323-32 32-32h32.013v-32.043c0-17.673 14.327-32 32-32s32 14.327 32 32v32.043h32.013c17.673 0 32 14.327 32 32s-14.327 32-32 32h-32.013v31.987c0 17.673-14.327 32-32 32s-32-14.327-32-32v-31.987h-32.013c-17.677 0-32-14.327-32-32z" />
<glyph unicode="&#xe92b;" glyph-name="payment-complete-line" d="M810.667 736c41.237 0 74.667-33.429 74.667-74.667v-85.333h-746.667v85.333c0 41.237 33.429 74.667 74.667 74.667h597.333zM138.667 512h746.667v-92.412c-35.149 18.159-75.042 28.412-117.333 28.412-141.385 0-256-114.615-256-256 0-10.837 0.674-21.517 1.98-32h-300.646c-41.237 0-74.667 33.429-74.667 74.667v277.333zM213.333 96h317.274c37.978-93.82 129.958-160 237.393-160 141.385 0 256 114.615 256 256 0 70.532-28.523 134.404-74.667 180.706v288.627c0 76.583-62.084 138.667-138.667 138.667h-597.333c-76.583 0-138.667-62.083-138.667-138.667v-426.667c0-76.582 62.083-138.667 138.667-138.667zM768 0c-106.039 0-192 85.961-192 192s85.961 192 192 192c106.039 0 192-85.961 192-192s-85.961-192-192-192zM856.085 213.594l-74.667-85.333c-11.277-12.885-30.703-14.613-44.075-3.917l-53.333 42.667c-13.798 11.042-16.038 31.181-4.996 44.979 11.038 13.803 31.177 16.038 44.975 4.996l29.427-23.539 54.502 62.293c11.639 13.299 31.855 14.647 45.154 3.008 13.299-11.635 14.647-31.855 3.012-45.154z" />
<glyph unicode="&#xe92c;" glyph-name="payment-wait-line" d="M149.333 234.667v426.667c0 35.346 28.654 64 64 64h597.333c35.345 0 64-28.654 64-64v-426.667c0-35.345-28.655-64-64-64h-597.333c-35.346 0-64 28.655-64 64zM85.333 661.333v-426.667c0-70.694 57.307-128 128-128h597.333c70.694 0 128 57.306 128 128v426.667c0 70.692-57.306 128-128 128h-597.333c-70.692 0-128-57.308-128-128zM384 448c0-23.565-19.102-42.667-42.667-42.667s-42.667 19.102-42.667 42.667c0 23.565 19.103 42.667 42.667 42.667s42.667-19.102 42.667-42.667zM512 405.333c23.565 0 42.667 19.102 42.667 42.667s-19.102 42.667-42.667 42.667c-23.565 0-42.667-19.102-42.667-42.667s19.102-42.667 42.667-42.667zM725.333 448c0-23.565-19.102-42.667-42.667-42.667s-42.667 19.102-42.667 42.667c0 23.565 19.102 42.667 42.667 42.667s42.667-19.102 42.667-42.667z" />
<glyph unicode="&#xe92d;" glyph-name="pencil-big" d="M798.805 578.674c8.329-8.331 21.837-8.331 30.17 0l54.519 54.519c33.323 33.324 33.323 87.354 0 120.679l-74.466 74.467c-33.327 33.325-87.356 33.325-120.683 0l-54.519-54.519c-8.329-8.332-8.329-21.839 0-30.17l164.979-164.976zM304.134 61.12c10.197 0.755 19.784 5.15 27.014 12.378l403.892 403.891c8.329 8.333 8.329 21.841 0 30.17l-164.979 164.977c-8.329 8.331-21.837 8.331-30.17 0l-403.889-403.889c-7.231-7.232-11.624-16.819-12.38-27.017l-12.63-170.287c-0.964-13.001 9.853-23.817 22.853-22.852l170.289 12.629z" />
<glyph unicode="&#xe92e;" glyph-name="pencil-line" d="M884.907 742.397l-55.467 55.467c-45.653 45.653-120.32 45.653-165.973 0l-491.947-491.948c-19.627-19.627-31.573-45.653-34.133-73.387l-8.96-110.933c-3.84-46.080 34.56-84.48 80.64-80.64l110.933 8.96c27.733 2.133 53.76 14.507 73.387 34.133l491.52 492.375c45.653 45.653 45.653 120.32 0 165.973zM347.307 129.702c-8.96-8.96-20.907-14.507-33.28-15.36l-110.507-9.387c-6.4-0.427-11.947 5.12-11.52 11.52l8.96 110.933c0.853 12.8 6.4 24.32 15.36 33.28l366.933 366.935 130.987-130.988-366.933-366.933zM840.107 622.504l-80.213-80.64-130.987 130.987 79.787 80.213c20.907 20.907 54.613 20.907 75.52 0.427l55.467-54.613c21.333-21.333 21.333-55.467 0.427-76.373z" />
<glyph unicode="&#xe92f;" glyph-name="play-circle" d="M512 917.333c-259.413 0-469.333-209.92-469.333-469.333s209.92-469.333 469.333-469.333c259.413 0 469.333 209.92 469.333 469.333s-209.92 469.333-469.333 469.333zM426.667 300.373v295.253l256-147.627-256-147.627z" />
<glyph unicode="&#xe930;" glyph-name="product-line" d="M160 611.563l320-166.955v-386.688l-286.342 154.185c-20.73 11.162-33.658 32.806-33.658 56.35v343.109zM544 57.92v386.684l320 166.958v-343.107c0-23.543-12.928-45.188-33.66-56.35l-286.34-154.185zM844.48 673.565l-332.48-173.469-332.481 173.47c4.16 4.021 8.9 7.511 14.138 10.332l287.998 155.077c18.944 10.2 41.745 10.2 60.685 0l288-155.077c5.239-2.821 9.98-6.311 14.14-10.333zM96 627.548v-359.094c0-47.087 25.855-90.377 67.315-112.7l288-155.076c37.884-20.399 83.486-20.399 121.37 0l288 155.076c41.459 22.323 67.315 65.613 67.315 112.7v359.094c0 47.089-25.856 90.375-67.315 112.7l-288 155.077c-37.884 20.399-83.486 20.399-121.37 0l-288-155.077c-41.46-22.325-67.315-65.611-67.315-112.7z" />
<glyph unicode="&#xe931;" glyph-name="product-sell-line" d="M149.333 149.333c0-35.345 28.654-64 64-64h597.333c35.345 0 64 28.655 64 64v597.333c0 35.346-28.655 64-64 64h-128v-320c0-47.13-38.204-85.333-85.333-85.333h-170.667c-47.128 0-85.333 38.204-85.333 85.333v320h-128c-35.346 0-64-28.654-64-64v-597.333zM618.667 810.667h-213.333v-320c0-11.78 9.551-21.333 21.333-21.333h170.667c11.78 0 21.333 9.553 21.333 21.333v320zM682.667 874.667h128c70.694 0 128-57.308 128-128v-597.333c0-70.694-57.306-128-128-128h-597.333c-70.693 0-128 57.306-128 128v597.333c0 70.692 57.308 128 128 128h469.333z" />
<glyph unicode="&#xe932;" glyph-name="product-stop-line" d="M149.333 149.333v597.333c0 35.346 28.654 64 64 64h597.333c35.345 0 64-28.654 64-64v-597.333c0-35.345-28.655-64-64-64h-597.333c-35.346 0-64 28.655-64 64zM85.333 746.667v-597.333c0-70.694 57.307-128 128-128h597.333c70.694 0 128 57.306 128 128v597.333c0 70.692-57.306 128-128 128h-597.333c-70.692 0-128-57.308-128-128zM747.959 638.706c12.497 12.497 12.497 32.758 0 45.255s-32.755 12.497-45.252 0l-426.668-426.668c-12.497-12.497-12.497-32.755 0-45.252s32.758-12.497 45.255 0l426.665 426.665z" />
<glyph unicode="&#xe933;" glyph-name="question-big" d="M434.338 663.393c15.616 26.993 44.599 44.859 77.662 44.859 49.485 0 89.6-40.115 89.6-89.6 0-27.389-10.368-47.116-28.365-66.877-9.651-10.593-20.877-20.46-34.069-31.421-1.916-1.591-4.015-3.319-6.242-5.154l-0.009-0.004c-10.807-8.883-24.683-20.292-35.571-31.181-29.926-29.926-46.17-62.652-54.942-87.467-4.416-12.493-7.091-23.403-8.717-31.65-0.815-4.143-1.374-7.676-1.754-10.47-0.192-1.399-0.341-2.62-0.452-3.648l-0.149-1.395-0.055-0.589-0.021-0.265-0.013-0.128-0.004-0.060c-0.004-0.030-0.004-0.060 80.759-6.985l-80.764 6.925c-3.823-44.608 29.239-83.87 73.847-87.693 44.015-3.772 82.825 28.365 87.522 72.073 0.030 0.196 0.085 0.516 0.171 0.951 0.337 1.711 1.075 4.885 2.492 8.892 2.897 8.188 7.991 18.125 16.725 26.863 4.809 4.809 10.807 9.762 20.924 18.112v0c2.927 2.415 6.195 5.116 9.882 8.175 14.434 11.998 32.789 27.712 50.308 46.946 36.335 39.893 70.63 96.813 70.63 176.049 0 139.028-112.704 251.733-251.733 251.733-93.278 0-174.601-50.776-218.005-125.808-11.274-19.489-20.029-40.66-25.792-63.052-11.159-43.359 14.943-87.555 58.301-98.714s87.555 14.943 98.715 58.301c2.028 7.882 5.117 15.359 9.119 22.281zM512 12.809c51.844 0 93.867 42.027 93.867 93.867s-42.022 93.867-93.867 93.867c-51.84 0-93.865-42.027-93.865-93.867s42.025-93.867 93.865-93.867z" />
<glyph unicode="&#xe934;" glyph-name="quotation-big" d="M288.368 418.513c23.54 5.901 46.1 4.915 67.678-2.948 21.578-5.897 40.215-16.708 55.908-32.431 17.657-15.727 31.387-34.402 41.196-56.021 11.772-21.623 17.655-45.214 17.655-70.767 0-49.139-17.655-90.419-52.966-123.836-35.31-31.45-78.467-47.177-129.471-47.177-68.659 0-119.663 24.572-153.012 73.711-33.349 51.11-50.023 115.977-50.023 194.603 0 106.146 24.521 198.534 73.563 277.161 46.962 74.206 117.208 130.915 210.737 170.125 14.47 6.066 31.072 1.021 40.367-11.619 13.171-17.912 6.547-43.326-12.912-54.080-57.432-31.74-101.519-69.497-132.261-113.271-37.272-53.073-55.908-112.044-55.908-176.911 0-21.623 3.924-34.398 11.77-38.332 9.809-3.93 20.598-3.93 32.368 0l35.311 11.793zM759.172 418.513c45.12 9.83 86.315-1.963 123.588-35.379 37.269-33.417 55.906-75.678 55.906-126.788 0-49.139-17.655-90.419-52.966-123.836-33.348-31.45-75.524-47.177-126.528-47.177-68.659 0-120.644 24.572-155.955 73.711-33.348 51.11-50.022 115.977-50.022 194.603 0 106.146 25.502 198.534 76.506 277.161 46.963 74.206 117.21 130.915 210.739 170.125 14.468 6.066 31.070 1.021 40.367-11.619 13.171-17.912 6.549-43.33-12.932-54.041-57.749-31.747-102.81-69.518-135.185-113.31-37.269-53.073-55.906-112.044-55.906-176.911 0-21.623 3.921-34.398 11.767-38.332 9.809-3.93 21.581-3.93 35.311 0l35.311 11.793z" />
<glyph unicode="&#xe935;" glyph-name="return-square-line" d="M149.333 149.333v597.333c0 35.346 28.654 64 64 64h597.333c35.345 0 64-28.654 64-64v-597.333c0-35.345-28.655-64-64-64h-597.333c-35.346 0-64 28.655-64 64zM85.333 746.667v-597.333c0-70.694 57.307-128 128-128h597.333c70.694 0 128 57.306 128 128v597.333c0 70.692-57.306 128-128 128h-597.333c-70.692 0-128-57.308-128-128zM472.585 649.818c11.311-13.577 9.476-33.755-4.1-45.069l-60.099-50.083h167.614c88.367 0 160-71.636 160-159.999 0-88.367-71.633-160-160-160h-42.667c-17.673 0-32 14.327-32 32s14.327 32 32 32h42.667c53.018 0 96 42.978 96 96 0 53.018-42.982 96-96 96h-167.614l60.099-50.086c13.577-11.311 15.411-31.492 4.1-45.069-11.315-13.577-31.492-15.411-45.069-4.096l-127.816 106.513c-0.541 0.444-1.068 0.905-1.578 1.387-0.653 0.61-1.278 1.246-1.873 1.907-5.127 5.675-8.249 13.193-8.249 21.444 0 8.286 3.15 15.838 8.319 21.521 1.048 1.153 2.179 2.229 3.384 3.218l127.813 106.51c13.577 11.314 33.754 9.48 45.069-4.097z" />
<glyph unicode="&#xe936;" glyph-name="sale-line" d="M516.736 851.424c-2.769 2.546-6.703 2.546-9.472 0l-67.273-61.833c-26.231-24.108-60.916-36.966-96.628-35.565l-90.769 3.559c-3.14 0.123-7.014-2.276-7.675-7.177l-12.302-91.174c-4.742-35.147-22.926-67.22-50.932-89.214l-71.791-56.378c-3.235-2.543-4.367-7.71-1.87-11.725l48.427-77.854c18.76-30.161 25.043-66.449 17.632-101.124l-19.222-89.937c-1.057-4.945 1.918-8.981 5.235-10.057l86.497-28.105c33.951-11.034 62.030-35.029 78.423-66.547l42.342-81.417c2.047-3.934 6.043-4.924 9.045-3.682l84.095 34.795c32.994 13.653 70.012 13.653 103.006 0l84.096-34.795c2.999-1.242 6.997-0.252 9.045 3.682l42.338 81.417c16.397 31.518 44.471 55.514 78.426 66.547l86.494 28.105c3.319 1.075 6.293 5.111 5.235 10.057l-19.221 89.937c-7.411 34.675-1.126 70.963 17.634 101.124l48.427 77.854c2.496 4.015 1.365 9.182-1.869 11.725l-71.791 56.378c-28.006 21.994-46.191 54.067-50.935 89.214l-12.301 91.174c-0.661 4.901-4.535 7.3-7.676 7.177l-90.769-3.559c-35.712-1.401-70.396 11.456-96.627 35.565l-67.273 61.833zM463.957 898.545c27.255 25.052 68.83 25.052 96.085 0l67.277-61.833c13.862-12.742 32.107-19.468 50.807-18.735l90.769 3.56c36.779 1.442 68.625-25.631 73.609-62.57l12.305-91.174c2.534-18.788 12.241-35.82 27.034-47.437l71.791-56.38c29.086-22.842 36.305-64.319 16.687-95.863l-48.427-77.854c-9.98-16.043-13.35-35.409-9.391-53.943l19.221-89.937c7.787-36.442-13.001-72.913-48.043-84.301l-86.498-28.105c-17.822-5.794-32.695-18.436-41.421-35.213l-42.342-81.412c-17.152-32.986-56.222-47.39-90.291-33.293l-84.096 34.795c-17.327 7.172-36.74 7.172-54.067 0l-84.095-34.795c-34.070-14.097-73.139 0.307-90.294 33.293l-42.342 81.412c-8.725 16.777-23.596 29.419-41.421 35.213l-86.496 28.105c-35.044 11.388-55.832 47.859-48.044 84.301l19.222 89.937c3.961 18.534 0.59 37.901-9.389 53.943l-48.428 77.854c-19.62 31.543-12.401 73.021 16.686 95.863l71.791 56.38c14.794 11.618 24.5 28.649 27.036 47.437l12.302 91.174c4.984 36.939 36.833 64.012 73.608 62.57l90.769-3.56c18.705-0.733 36.947 5.993 50.81 18.735l67.276 61.833zM338.508 319.782l301.697 301.7c12.497 12.497 32.759 12.497 45.257 0s12.497-32.758 0-45.255l-301.699-301.698c-12.497-12.497-32.758-12.497-45.255 0s-12.497 32.755 0 45.252zM421.484 598.831c-16.662 16.662-43.677 16.662-60.34 0s-16.663-43.677 0-60.34c16.662-16.661 43.677-16.661 60.34 0 16.66 16.662 16.66 43.677 0 60.34zM662.827 297.169c-16.661-16.661-43.678-16.661-60.339 0s-16.661 43.678 0 60.339c16.661 16.661 43.678 16.661 60.339 0s16.661-43.678 0-60.339z" />
<glyph unicode="&#xe937;" glyph-name="search-line-big" d="M591.398 721.936c99.977-99.974 99.977-262.066 0-362.039-99.972-99.977-262.063-99.977-362.038 0-99.974 99.972-99.974 262.064 0 362.039s262.065 99.974 362.038 0zM683.814 336.533c100.194 133.692 89.502 324.166-32.077 445.743-133.299 133.299-349.417 133.299-482.717 0s-133.299-349.418 0-482.717c124.578-124.578 321.496-132.727 455.538-24.452l256.806-256.806c16.661-16.661 43.678-16.661 60.339 0 16.661 16.666 16.661 43.678 0 60.339l-257.89 257.894z" />
<glyph unicode="&#xe938;" glyph-name="shipment-big" d="M437.333 746.665v-511.998c0-23.565 19.102-42.667 42.667-42.667h103.117c8.085 89.702 83.477 160 175.283 160 91.81 0 167.198-70.298 175.283-160h4.983c47.13 0 85.333 38.204 85.333 85.333v469.333c0 47.128-38.204 85.333-85.333 85.333l-416-0.001c-47.13 0-85.333-38.205-85.333-85.334zM760.533 57.617c65.391 0 118.4 53.009 118.4 118.4s-53.009 118.4-118.4 118.4c-65.387 0-118.4-53.009-118.4-118.4s53.013-118.4 118.4-118.4zM208.477 682.667h122.19c23.564 0 42.667-19.103 42.667-42.667v-320.081c-28.651 20.211-63.606 32.081-101.333 32.081-91.809 0-167.199-70.298-175.282-160h-11.384c-47.128 0-85.333 38.204-85.333 85.333v189.184c0 21.739 8.298 42.662 23.199 58.492l123.143 130.814c16.125 17.131 38.608 26.843 62.134 26.843zM271.999 57.617c65.391 0 118.4 53.009 118.4 118.4s-53.009 118.4-118.4 118.4c-65.391 0-118.4-53.009-118.4-118.4s53.009-118.4 118.4-118.4z" />
<glyph unicode="&#xe939;" glyph-name="shipment-line" d="M934.707 672v-304.452c0-49.715-38.733-90.385-87.667-93.474-21.619 36.459-61.372 60.902-106.833 60.902-46.733 0-87.433-25.83-108.604-63.991v2.897h-175.881v398.118c0 41.237 33.429 74.667 74.667 74.667l329.651 0.001c41.237 0 74.667-33.429 74.667-74.667zM398.899 209.882h217.203c0.525-68.092 55.889-123.132 124.105-123.132 68.544 0 124.113 55.569 124.113 124.113l-0.004 0.725c76.041 11.251 134.391 76.791 134.391 155.959v304.452c0 76.584-62.084 138.667-138.667 138.667l-329.651-0.001c-76.582 0-138.665-62.083-138.665-138.667v-56.806h-169.001c-35.644 0-69.356-16.203-91.622-44.036l-79.791-99.741c-16.644-20.804-25.712-46.652-25.712-73.297v-113.566c0-41.237 33.43-74.667 74.667-74.667h50.418c0.525-68.096 55.889-123.136 124.108-123.136s123.582 55.040 124.108 123.132zM381.731 273.89c-21.594 36.561-61.403 61.086-106.939 61.086-45.538 0-85.348-24.529-106.942-61.090h-67.584c-5.891 0-10.667 4.774-10.667 10.667v113.566c0 12.113 4.122 23.863 11.687 33.318l79.791 99.738c10.121 12.654 25.445 20.018 41.647 20.018h169.001v-277.303h-9.994zM740.207 150.75c-33.199 0-60.109 26.914-60.109 60.113s26.91 60.113 60.109 60.113c33.199 0 60.113-26.914 60.113-60.113s-26.914-60.113-60.113-60.113zM334.903 210.863c0-33.199-26.913-60.113-60.112-60.113s-60.111 26.914-60.111 60.113c0 33.199 26.913 60.113 60.111 60.113s60.112-26.914 60.112-60.113z" />
<glyph unicode="&#xe93a;" glyph-name="shipment-ready-line" d="M512 906.667c-17.673 0-32-14.327-32-32v-210.281l-50.082 60.099c-11.313 13.577-31.491 15.411-45.068 4.097s-15.411-31.492-4.097-45.069l106.501-127.8c0.491-0.599 1.003-1.18 1.536-1.742 5.466-5.756 13.047-9.481 21.504-9.926 0.567-0.030 1.135-0.046 1.711-0.046 7.211 0 14.14 2.433 19.721 6.799 1.766 1.383 3.396 2.96 4.86 4.716l106.667 128c11.315 13.577 9.481 33.755-4.096 45.069s-33.754 9.48-45.069-4.097l-50.086-60.101v210.283c0 17.673-14.327 32-32 32zM192 426.667h640v-277.333c0-35.345-28.655-64-64-64h-512c-35.346 0-64 28.655-64 64v277.333zM179.538 490.667l-73.021 182.553c-6.563 16.409-25.187 24.39-41.596 17.827s-24.39-25.187-17.827-41.596l80.906-202.266v-297.852c0-70.694 57.307-128 128-128h512c70.694 0 128 57.306 128 128v292.506l83.042 207.612c6.566 16.409-1.417 35.032-17.826 41.596s-35.029-1.417-41.596-17.827l-73.020-182.553h-667.063z" />
<glyph unicode="&#xe93b;" glyph-name="shop-line" d="M928 147.2h-32v324.693c43.947 14.933 69.547 64.427 51.627 111.36l-69.547 181.333c-12.8 32.853-44.373 54.613-79.787 54.613h-173.653c-0.427 0-0.853 0-1.28 0h-222.72c-0.427 0-0.853 0-1.28 0h-173.653c-35.413 0-66.987-21.76-79.787-54.613l-69.547-181.333c-17.92-46.933 7.68-96.427 51.627-111.36v-324.693h-32c-17.493 0-32-14.507-32-32s14.507-32 32-32h832c17.493 0 32 14.507 32 32s-14.507 32-32 32zM427.947 755.2h168.107l31.147-224h-230.4l31.147 224zM136.107 560.213l69.547 181.333c2.987 8.107 11.093 13.653 20.053 13.653h137.813l-31.573-224h-175.787c-14.933 0-25.173 14.933-20.053 29.013zM416 147.2v96.427c0 52.907 43.093 96 96 96s96-43.093 96-96v-96.427h-192zM832 147.2h-160v96c0 88.32-71.68 160-160 160s-160-71.68-160-160v-96h-160v320h640v-320zM867.84 531.2h-176.213l-31.147 224h137.813c8.96 0 17.067-5.547 20.053-13.653l69.547-181.333c5.12-14.080-5.12-29.013-20.053-29.013z" />
<glyph unicode="&#xe93c;" glyph-name="wrong-triangle-line" d="M968.107 167.893l-383.573 643.84c-33.28 55.467-113.493 55.467-146.773 0l-383.146-643.84c-33.707-56.747 7.253-128.853 73.387-128.853h766.292c66.56 0 107.52 72.107 73.813 128.853zM894.72 103.040h-766.719c-16.64 0-26.88 17.92-18.347 32.427l383.146 643.84c8.107 14.080 28.587 14.080 36.693 0l383.147-643.84c8.96-14.507-1.707-32.427-17.92-32.427zM511.573 337.707c23.467 0 42.667 19.2 42.667 42.667v213.335c0 23.467-19.2 42.667-42.667 42.667s-42.667-19.2-42.667-42.667v-213.335c0-23.467 18.773-42.667 42.667-42.667zM575.573 231.040c0-35.345-28.655-64-64-64s-64 28.655-64 64c0 35.349 28.655 64 64 64s64-28.651 64-64z" />
<glyph unicode="&#xe93d;" glyph-name="wrong" d="M512 874.667c-47.13 0-85.333-38.205-85.333-85.333v-426.667c0-47.13 38.204-85.333 85.333-85.333s85.333 38.204 85.333 85.333v426.667c0 47.128-38.204 85.333-85.333 85.333zM512 192c-47.13 0-85.333-38.204-85.333-85.333s38.204-85.333 85.333-85.333c47.13 0 85.333 38.204 85.333 85.333s-38.204 85.333-85.333 85.333z" />
<glyph unicode="&#xe93e;" glyph-name="youtube" d="M1002.624 677.386c-11.802 44.033-46.481 78.769-90.513 90.515-79.885 21.432-400.081 21.432-400.081 21.432s-320.256 0-400.083-21.432c-44.089-11.746-78.769-46.426-90.571-90.515-21.376-79.827-21.376-246.496-21.376-246.496s0-166.613 21.376-246.494c11.801-44.087 46.482-78.771 90.571-90.513 79.883-21.38 400.083-21.38 400.083-21.38s320.196 0 400.081 21.38c44.032 11.797 78.767 46.481 90.513 90.513 21.376 79.881 21.376 246.494 21.376 246.494s0.055 166.669-21.376 246.496zM409.6 277.303v307.23l266.035-153.643-266.035-153.587z" />
<glyph unicode="&#xe93f;" glyph-name="add-circle-big" d="M512-12.8c254.495 0 460.8 206.305 460.8 460.8 0 254.493-206.305 460.8-460.8 460.8-254.493 0-460.8-206.307-460.8-460.8 0-254.495 206.307-460.8 460.8-460.8zM512 663.625c21.207 0 38.4-17.192 38.4-38.4v-138.825h138.762c21.207 0 38.4-17.192 38.4-38.4s-17.193-38.4-38.4-38.4h-138.762v-138.839c0-21.207-17.193-38.4-38.4-38.4s-38.4 17.193-38.4 38.4v138.839h-138.9c-21.208 0-38.4 17.193-38.4 38.4s17.192 38.4 38.4 38.4h138.9v138.825c0 21.208 17.192 38.4 38.4 38.4z" />
<glyph unicode="&#xe940;" glyph-name="answer-line" d="M875.52 142.848l-319.488 639.488c-7.68 14.848-22.528 24.064-38.912 24.064s-31.744-9.216-38.912-24.064l-320-639.488c-10.752-21.504-2.048-47.616 19.456-58.368s47.616-2.048 58.368 19.456l94.72 188.928h372.736l94.72-188.928c10.752-21.504 36.864-30.208 58.368-19.456 20.992 10.752 29.696 36.864 18.944 58.368zM374.272 379.904l142.848 285.696 142.848-285.696h-285.696z" />
<glyph unicode="&#xe941;" glyph-name="arrow-next-line" d="M957.804 484.204c19.994-19.995 19.994-52.414 0-72.408l-307.2-307.2c-19.994-19.994-52.413-19.994-72.407 0s-19.994 52.413 0 72.407l219.796 219.796h-698.439c-26.706 0-48.355 22.922-48.355 51.2s21.65 51.2 48.355 51.2h698.439l-219.796 219.796c-19.994 19.995-19.994 52.413 0 72.408s52.413 19.995 72.407 0l307.2-307.2z" />
<glyph unicode="&#xe942;" glyph-name="arrow-prev-line" d="M66.196 411.796c-19.995 19.994-19.995 52.412 0 72.408l307.2 307.2c19.995 19.995 52.413 19.995 72.408 0s19.995-52.413 0-72.408l-219.796-219.796h698.439c26.706 0 48.353-22.923 48.353-51.2s-21.647-51.2-48.353-51.2h-698.439l219.796-219.796c19.995-19.994 19.995-52.413 0-72.407s-52.413-19.994-72.408 0l-307.2 307.2z" />
<glyph unicode="&#xe943;" glyph-name="call-line" d="M680.187 376.694c34.934 35.046 91.571 35.046 126.5 0l124.611-125.030c34.929-35.046 34.929-91.873 0-126.925l-47.16-47.314c-4.572-4.588-9.523-8.627-14.766-12.109-92.38-73.185-210.883-70.692-302.986-45.491-105.040 28.744-211.059 94.152-300.127 183.521s-154.258 195.743-182.905 301.136c-25.936 95.416-27.734 219.277 52.791 313.068 2.525 3.254 5.268 6.376 8.227 9.345l43.544 43.69c34.932 35.050 91.569 35.050 126.501 0l124.609-125.026c34.932-35.050 34.932-91.876 0-126.926l-69.57-69.803c17.898-43.632 50.382-94.452 98.688-142.921 48.317-48.476 98.974-81.075 142.463-99.031l69.581 69.816zM752.471 322.294c-4.987 5.007-13.082 5.007-18.068 0l-103.352-103.7-22.236 7.101c-61.030 19.492-131.026 61.742-194.886 125.819-63.85 64.061-105.954 134.282-125.385 195.51l-7.081 22.311 103.347 103.694c4.99 5.007 4.99 13.125 0 18.132l-124.609 125.027c-4.99 5.007-13.081 5.007-18.072 0l-43.544-43.69c-0.793-0.796-1.504-1.619-2.138-2.461l-0.788-1.047-0.858-0.99c-57.306-66.17-60.294-159.343-37.48-243.277 24.537-90.27 81.762-185.318 163.151-266.982 81.389-81.659 176.118-139.080 266.085-163.697 81.111-22.195 171.054-20.040 236.462 32.579l1.766 1.418 1.92 1.203c1.111 0.696 2.191 1.546 3.215 2.575l47.16 47.314c4.992 5.007 4.992 13.128 0 18.135l-124.611 125.025z" />
<glyph unicode="&#xe944;" glyph-name="chevron-left-line-big" d="M268.8 448c0 10.184 4.046 19.952 11.247 27.153l409.602 409.6c14.996 14.996 39.306 14.996 54.303 0s14.996-39.31 0-54.306l-382.446-382.447 382.446-382.449c14.996-14.996 14.996-39.306 0-54.303s-39.306-14.996-54.303 0l-409.602 409.6c-7.201 7.199-11.247 16.968-11.247 27.151z" />
<glyph unicode="&#xe945;" glyph-name="chevron-right-line-big" d="M743.951 475.153c14.996-14.996 14.996-39.308 0-54.304l-409.598-409.6c-14.996-14.996-39.31-14.996-54.306 0s-14.996 39.306 0 54.303l382.445 382.449-382.445 382.447c-14.996 14.996-14.996 39.31 0 54.306s39.31 14.996 54.306 0l409.598-409.6z" />
<glyph unicode="&#xe946;" glyph-name="close-line-big" d="M189.804 46.121c-19.995-19.994-52.413-19.994-72.408 0s-19.995 52.413 0 72.407l325.834 325.837-325.832 325.831c-19.995 19.995-19.995 52.413 0 72.408s52.413 19.995 72.408 0l325.83-325.832 325.837 325.836c19.999 19.995 52.413 19.995 72.407 0 19.999-19.995 19.999-52.413 0-72.408l-325.832-325.834 325.837-325.837c19.994-19.999 19.994-52.413 0-72.412-19.999-19.994-52.413-19.994-72.407 0l-325.842 325.842-325.831-325.837z" />
<glyph unicode="&#xe947;" glyph-name="cs-line" d="M224 627.2h13.714c52.514 0 95.086-42.571 95.086-95.086v-155.431c0-52.511-42.571-95.084-95.086-95.084h-13.714c-95.435 0-172.8 77.363-172.8 172.8 0 95.435 77.365 172.8 172.8 172.8zM224 550.4c-53.019 0-96-42.981-96-96s42.981-96 96-96h13.714c10.099 0 18.286 8.187 18.286 18.284v155.431c0 10.099-8.187 18.286-18.286 18.286h-13.714zM800 281.6h-13.716c-52.511 0-95.084 42.573-95.084 95.084v155.431c0 52.514 42.573 95.086 95.084 95.086h13.716c95.437 0 172.8-77.365 172.8-172.8 0-95.437-77.363-172.8-172.8-172.8zM800 358.4c53.018 0 96 42.982 96 96s-42.982 96-96 96h-13.716c-10.097 0-18.284-8.187-18.284-18.286v-155.431c0-10.097 8.187-18.284 18.284-18.284h13.716zM512.010 768c-121.387 0-224.929-76.825-264.47-184.631l-72.103 26.446c50.277 137.078 181.943 234.985 336.573 234.985s286.295-97.907 336.573-234.985l-72.1-26.446c-39.542 107.806-143.084 184.631-264.474 184.631zM550.39 148.593c0-21.212-17.193-38.4-38.402-38.4-134.744 0-252.064 74.373-313.242 184.125l67.082 37.391c48.167-86.41 140.381-144.717 246.16-144.717 21.209 0 38.402-17.193 38.402-38.4zM608 134.4c0-53.019-42.981-96-96-96s-96 42.981-96 96c0 53.019 42.981 96 96 96s96-42.981 96-96z" />
<glyph unicode="&#xe948;" glyph-name="desktop-line" d="M814.592 847.36h-604.673c-77.824 0-140.8-62.976-140.8-140.8v-373.248c0-77.824 62.976-140.8 140.8-140.8h130.56l-23.040-56.32c-17.408-41.984 13.824-88.064 59.392-88.064h270.337c45.568 0 76.288 46.080 59.392 88.064l-23.040 56.32h130.56c77.824 0 140.8 62.976 140.8 140.8v373.248c0.512 77.824-62.464 140.8-140.288 140.8zM395.775 124.928l27.136 67.584h177.665l27.136-67.584h-231.937zM878.592 333.312c0-35.328-28.672-64-64-64h-604.673c-35.328 0-64 28.672-64 64v373.248c0 35.328 28.672 64 64 64h604.673c35.328 0 64-28.672 64-64v-373.248z" />
<glyph unicode="&#xe949;" glyph-name="download-line-big" d="M511.998 908.806c28.275 0 51.202-22.923 51.202-51.2v-424.93l132.029 131.993c19.999 19.992 52.413 19.987 72.407-0.011s19.988-52.416-0.010-72.408l-219.494-219.426c-19.999-19.994-52.416-19.988-72.408 0.010l-219.364 219.427c-19.992 19.998-19.987 52.416 0.011 72.408s52.416 19.987 72.408-0.011l132.019-132.059v425.007c0 28.277 22.923 51.2 51.2 51.2zM153.6 243.2c0 28.278-22.923 51.2-51.2 51.2s-51.2-22.922-51.2-51.2v-102.4c0-84.833 68.769-153.6 153.6-153.6h614.4c84.833 0 153.6 68.767 153.6 153.6v102.4c0 28.278-22.922 51.2-51.2 51.2s-51.2-22.922-51.2-51.2v-102.4c0-28.278-22.922-51.2-51.2-51.2h-614.4c-28.277 0-51.2 22.922-51.2 51.2v102.4z" />
<glyph unicode="&#xe94a;" glyph-name="equals-circle-big" d="M512-12.8c254.495 0 460.8 206.305 460.8 460.8 0 254.493-206.305 460.8-460.8 460.8-254.493 0-460.8-206.307-460.8-460.8 0-254.495 206.307-460.8 460.8-460.8zM296.3 531.79c0 21.208 17.192 38.4 38.4 38.4h354.462c21.207 0 38.4-17.192 38.4-38.4s-17.193-38.4-38.4-38.4h-354.462c-21.208 0-38.4 17.192-38.4 38.4zM296.3 364.211c0 21.207 17.192 38.4 38.4 38.4h354.462c21.207 0 38.4-17.193 38.4-38.4s-17.193-38.4-38.4-38.4h-354.462c-21.208 0-38.4 17.193-38.4 38.4z" />
<glyph unicode="&#xe94b;" glyph-name="exit-line" d="M46.075 709.125c0 113.108 91.692 204.8 204.8 204.8h522.24c113.106 0 204.8-91.692 204.8-204.8v-23.435c0-28.277-22.922-51.2-51.2-51.2s-51.2 22.923-51.2 51.2v23.435c0 56.554-45.844 102.4-102.4 102.4h-522.24c-56.554 0-102.4-45.846-102.4-102.4v-522.24c0-56.556 45.846-102.4 102.4-102.4h522.24c56.556 0 102.4 45.844 102.4 102.4v41.467c0 28.278 22.922 51.2 51.2 51.2s51.2-22.922 51.2-51.2v-41.467c0-113.106-91.694-204.8-204.8-204.8h-522.24c-113.108 0-204.8 91.694-204.8 204.8v522.24zM484.806 499.2l63.397 63.396c19.994 19.995 19.994 52.413 0 72.408s-52.414 19.995-72.409 0l-150.219-150.219c-9.611-9.308-15.586-22.348-15.586-36.785 0-5.97 1.021-11.694 2.898-17.024 2.463-7.004 6.496-13.583 12.099-19.19l150.809-150.81c19.995-19.994 52.415-19.994 72.409 0 19.994 19.999 19.994 52.413 0 72.412l-63.415 63.411h441.926c28.278 0 51.2 22.922 51.2 51.2s-22.922 51.2-51.2 51.2h-441.909z" />
<glyph unicode="&#xe94c;" glyph-name="guidebook-line" d="M294.4 870.4h435.2c77.763 0 140.8-63.038 140.8-140.8v-614.4c0-49.485-40.115-89.6-89.6-89.6h-512c-63.623 0-115.2 51.579-115.2 115.2v588.8c0 77.762 63.038 140.8 140.8 140.8zM793.6 293.494v436.106c0 35.346-28.652 64-64 64h-435.2c-35.346 0-64-28.654-64-64v-448.133c17.458 8.294 36.987 12.933 57.6 12.933h492.8c4.347 0 8.617-0.307 12.8-0.906zM288 102.4h492.8c7.071 0 12.8 5.729 12.8 12.8v89.6c0 7.071-5.729 12.8-12.8 12.8h-492.8c-31.812 0-57.6-25.789-57.6-57.6s25.788-57.6 57.6-57.6zM345.6 576c0-21.208 17.192-38.4 38.4-38.4h256c21.207 0 38.4 17.192 38.4 38.4s-17.193 38.4-38.4 38.4h-256c-21.208 0-38.4-17.192-38.4-38.4z" />
<glyph unicode="&#xe94d;" glyph-name="menu-line" d="M51.2 806.4c0 28.277 22.923 51.2 51.2 51.2h819.2c28.278 0 51.2-22.923 51.2-51.2s-22.922-51.2-51.2-51.2h-819.2c-28.277 0-51.2 22.923-51.2 51.2zM51.2 448c0 28.277 22.923 51.2 51.2 51.2h819.2c28.278 0 51.2-22.923 51.2-51.2s-22.922-51.2-51.2-51.2h-819.2c-28.277 0-51.2 22.922-51.2 51.2zM102.4 140.8c-28.277 0-51.2-22.922-51.2-51.2s22.923-51.2 51.2-51.2h819.2c28.278 0 51.2 22.922 51.2 51.2s-22.922 51.2-51.2 51.2h-819.2z" />
<glyph unicode="&#xe94e;" glyph-name="minus-circle-big" d="M512-12.8c254.495 0 460.8 206.305 460.8 460.8 0 254.493-206.305 460.8-460.8 460.8-254.493 0-460.8-206.307-460.8-460.8 0-254.495 206.307-460.8 460.8-460.8zM296.3 448c0 21.208 17.192 38.4 38.4 38.4h354.462c21.207 0 38.4-17.192 38.4-38.4s-17.193-38.4-38.4-38.4h-354.462c-21.208 0-38.4 17.193-38.4 38.4z" />
<glyph unicode="&#xe94f;" glyph-name="mobile-line" d="M326.4 870.4c-77.762 0-140.8-63.038-140.8-140.8v-563.2c0-77.763 63.038-140.8 140.8-140.8h371.2c77.763 0 140.8 63.037 140.8 140.8v563.2c0 77.762-63.037 140.8-140.8 140.8h-371.2zM262.4 729.6c0 35.346 28.654 64 64 64h371.2c35.348 0 64-28.654 64-64v-563.2c0-35.348-28.652-64-64-64h-371.2c-35.346 0-64 28.652-64 64v563.2zM464 262.4c-21.208 0-38.4-17.193-38.4-38.4s17.192-38.4 38.4-38.4h96c21.207 0 38.4 17.193 38.4 38.4s-17.193 38.4-38.4 38.4h-96z" />
<glyph unicode="&#xe950;" glyph-name="news-line" d="M851.2 753.614c0 17.496-17.162 29.837-33.746 24.269l-421.157-141.367c-1.956-0.656-3.922-1.279-5.897-1.867v-245.299c1.975-0.584 3.941-1.208 5.897-1.864l421.157-141.368c16.584-5.565 33.746 6.774 33.746 24.269v483.227zM313.6 627.201h-115.2c-14.138 0-25.6-11.461-25.6-25.6v-179.201c0-14.136 11.462-25.6 25.6-25.6h115.2v230.401zM313.6 320h-115.2c-56.554 0-102.4 45.85-102.4 102.4v179.201c0 56.554 45.846 102.4 102.4 102.4h140.873c11.078 0 22.083 1.798 32.585 5.323l421.158 141.367c66.345 22.27 134.984-27.093 134.984-97.077v-483.227c0-69.985-68.639-119.347-134.984-97.075l-210.616 70.697v-128.809c0-49.485-40.115-89.6-89.6-89.6h-89.6c-49.485 0-89.6 40.115-89.6 89.6v204.8zM390.4 308.454v-193.254c0-7.071 5.731-12.8 12.8-12.8h89.6c7.069 0 12.8 5.729 12.8 12.8v154.588l-115.2 38.666z" />
<glyph unicode="&#xe951;" glyph-name="outlink-line" d="M860.677 644.324c0-28.277 22.922-51.2 51.2-51.2 28.273 0 51.2 22.923 51.2 51.2v212.135c0.297 13.663-4.838 27.412-15.375 37.727-6.118 5.993-13.363 10.139-21.033 12.444-4.685 1.411-9.651 2.169-14.792 2.169h-213.279c-28.278 0-51.2-22.923-51.2-51.2s22.922-51.2 51.2-51.2h91.52l-365.905-373.775c-19.781-20.209-19.436-52.623 0.771-72.407 20.207-19.779 52.623-19.436 72.403 0.773l363.29 371.103v-87.77zM256 703.999c-56.554 0-102.4-45.846-102.4-102.4v-409.599c0-56.556 45.846-102.4 102.4-102.4h409.6c56.556 0 102.4 45.844 102.4 102.4v232.371c0 28.275 22.922 51.197 51.2 51.197s51.2-22.923 51.2-51.197v-232.371c0-113.111-91.694-204.8-204.8-204.8h-409.6c-113.108 0-204.8 91.689-204.8 204.8v409.599c0 113.108 91.692 204.8 204.8 204.8h232.369c28.275 0 51.202-22.923 51.202-51.2s-22.927-51.2-51.202-51.2h-232.369z" />
<glyph unicode="&#xe952;" glyph-name="question-line" d="M663.347 235.095l-119.107 119.107c-16.993 16.993-16.993 44.549 0 61.548 16.998 16.993 44.554 16.993 61.548 0l119.112-119.112c36.726 49.423 58.46 110.653 58.46 176.963 0 164.006-132.951 296.96-296.96 296.96-164.006 0-296.96-132.954-296.96-296.96 0-164.009 132.954-296.96 296.96-296.96 66.304 0 127.529 21.729 176.947 58.455zM725.412 173.030c-65.587-52.224-148.654-83.43-239.012-83.43-212.078 0-384 171.924-384 384 0 212.078 171.922 384 384 384 212.076 0 384-171.922 384-384 0-90.363-31.212-173.435-83.441-239.022l114.212-114.212c16.998-16.998 16.998-44.554 0-61.548-16.993-16.998-44.549-16.998-61.542 0l-114.217 114.212z" />
<glyph unicode="&#xe953;" glyph-name="upload-line-big" d="M548.275 893.798c-19.994 19.998-52.411 20.003-72.409 0.011l-219.494-219.428c-19.998-19.992-20.002-52.41-0.011-72.408s52.41-20.002 72.408-0.011l132.030 131.992v-424.931c0-28.273 22.923-51.2 51.2-51.2s51.2 22.927 51.2 51.2v425.008l132.019-132.058c19.994-19.998 52.408-20.002 72.407-0.011s20.004 52.41 0.010 72.408l-219.361 219.428zM153.6 243.2c0 28.278-22.923 51.2-51.2 51.2s-51.2-22.922-51.2-51.2v-102.4c0-84.833 68.769-153.6 153.6-153.6h614.4c84.833 0 153.6 68.767 153.6 153.6v102.4c0 28.278-22.922 51.2-51.2 51.2s-51.2-22.922-51.2-51.2v-102.4c0-28.278-22.922-51.2-51.2-51.2h-614.4c-28.277 0-51.2 22.922-51.2 51.2v102.4z" />
<glyph unicode="&#xe954;" glyph-name="account-setting" d="M352 608c79.529 0 144 64.471 144 144s-64.471 144-144 144c-79.529 0-144-64.471-144-144s64.471-144 144-144zM304 560c-132.548 0-240-107.452-240-240 0-53.018 42.98-96 96-96h235.868c6.249 12.019 14.82 22.925 25.404 31.994-37.931 32.544-49.98 88.696-21.847 134.89l32.148 52.787c28.211 46.321 85.165 62.952 133.019 44.842 0.314 1.734 0.671 3.449 1.068 5.146-43.075 41.104-101.42 66.343-165.66 66.343h-96zM736.186 0h-64.294c-24.858 0-45.010 19.104-45.010 42.669v18.726c0 14.010-7.883 26.95-20.679 33.958-12.796 7.002-28.563 7.002-41.359 0l-17.176-9.402c-21.526-11.782-49.053-4.794-61.482 15.616l-32.148 52.787c-12.428 20.403-5.053 46.502 16.474 58.285l17.097 9.357c12.81 7.008 20.702 19.968 20.702 33.99s-7.892 26.976-20.702 33.99l-17.050 9.331c-21.527 11.782-28.902 37.877-16.474 58.284l32.148 52.787c12.429 20.407 39.955 27.399 61.482 15.617l17.023-9.317c12.819-7.016 28.611-7.016 41.43 0s20.714 19.981 20.714 34.013v18.641c0 23.564 20.152 42.667 45.010 42.667h64.294c24.858 0 45.011-19.103 45.011-42.667v-18.737c0-14.008 7.878-26.953 20.678-33.957s28.563-7.005 41.363 0l17.050 9.331c21.523 11.782 49.050 4.79 61.478-15.617l32.147-52.787c12.429-20.407 5.056-46.501-16.474-58.284l-17.12-9.37c-12.787-7.002-20.666-19.93-20.666-33.926s7.878-26.931 20.666-33.926l17.171-9.395c21.523-11.782 28.902-37.882 16.474-58.285l-32.154-52.787c-12.422-20.41-39.949-27.398-61.478-15.616l-17.203 9.414c-12.774 6.989-28.512 6.989-41.293 0-12.774-6.995-20.64-19.917-20.64-33.901v-18.822c0-23.565-20.154-42.669-45.011-42.669zM704.045 164.57c53.267 0 96.448 40.934 96.448 91.43s-43.181 91.428-96.448 91.428c-53.267 0-96.445-40.932-96.445-91.428s43.178-91.43 96.445-91.43z" />
<glyph unicode="&#xe955;" glyph-name="account" d="M512 512c106.038 0 192 85.962 192 192s-85.962 192-192 192c-106.038 0-192-85.962-192-192s85.962-192 192-192zM448 448c-176.731 0-320-143.27-320-320 0-70.694 57.308-128 128-128h512c70.694 0 128 57.306 128 128 0 176.73-143.27 320-320 320h-128z" />
<glyph unicode="&#xe956;" glyph-name="add-circle" d="M512 896c247.424 0 448-200.577 448-448s-200.576-448-448-448c-247.423 0-448 200.576-448 448s200.577 448 448 448zM559.987 632.613c0 26.51-21.491 48-48 48s-48-21.49-48-48v-136.615h-136.616c-26.509 0-48-21.491-48-48s21.491-48 48-48h136.616v-136.612c0-26.515 21.491-48 48-48s48 21.485 48 48v136.612h136.615c26.509 0 48 21.49 48 48s-21.491 48-48 48h-136.615v136.615z" />
<glyph unicode="&#xe957;" glyph-name="answer-line-s" d="M554.927 805.466l335.997-672.001c11.859-23.712 2.246-52.544-21.466-64.397-23.712-11.859-52.544-2.246-64.397 21.466l-98.733 197.466h-388.669l-98.733-197.466c-11.855-23.712-40.688-33.325-64.399-21.466-23.711 11.853-33.322 40.685-21.466 64.397l336 672.001c8.131 16.262 24.751 26.534 42.932 26.534s34.802-10.272 42.932-26.534zM658.33 384l-146.335 292.669-146.334-292.669h292.669z" />
<glyph unicode="&#xe958;" glyph-name="api" d="M768 832c0-70.692-57.306-128-128-128-21.229 0-41.251 5.168-58.877 14.315l-259.367-222.315h391.549c18.989 46.909 64.979 80 118.694 80 70.694 0 128-57.308 128-128s-57.306-128-128-128c-53.715 0-99.706 33.091-118.694 80h-391.549l259.367-222.317c17.626 9.146 37.647 14.317 58.877 14.317 70.694 0 128-57.306 128-128s-57.306-128-128-128c-70.692 0-128 57.306-128 128 0 14.266 2.334 27.987 6.641 40.8l-267.764 229.515c-17.625-9.147-37.647-14.315-58.876-14.315-70.692 0-128 57.308-128 128s57.308 128 128 128c21.229 0 41.251-5.168 58.876-14.315l267.764 229.512c-4.307 12.815-6.641 26.536-6.641 40.803 0 70.692 57.308 128 128 128 70.694 0 128-57.308 128-128z" />
<glyph unicode="&#xe959;" glyph-name="arrow-circle-right-line-s" d="M133.332 447.99c0 209.132 169.535 378.666 378.667 378.666 209.134 0 378.664-169.535 378.664-378.666 0-209.129-169.53-378.665-378.664-378.665-209.132 0-378.667 169.536-378.667 378.665zM511.999 922.656c-262.151 0-474.667-212.515-474.667-474.666 0-262.153 212.516-474.665 474.667-474.665s474.664 212.512 474.664 474.665c0 262.151-212.512 474.666-474.664 474.666zM503.273 286.048l128 128.001c18.743 18.745 18.743 49.137 0 67.882l-128 128c-18.745 18.745-49.137 18.745-67.882 0s-18.745-49.137 0-67.882l94.059-94.059-94.059-94.059c-18.745-18.746-18.745-49.137 0-67.883s49.137-18.746 67.882 0z" />
<glyph unicode="&#xe95a;" glyph-name="arrow-next" d="M945.837 403.132c9.018 9.004 14.086 21.222 14.086 33.962s-5.069 24.959-14.086 33.963l-281.19 280.844c-18.758 18.733-49.151 18.714-67.885-0.043s-18.714-49.149 0.043-67.882l199.125-198.874h-684.984c-26.509 0-48-21.49-48-48s21.49-48 48-48h684.997l-199.138-198.887c-18.757-18.733-18.776-49.126-0.043-67.885s49.126-18.778 67.885-0.045l281.19 280.847z" />
<glyph unicode="&#xe95b;" glyph-name="arrow-prev" d="M79.498 484.247c-9.923-9.613-15.498-22.652-15.498-36.247s5.575-26.634 15.498-36.247l277.404-268.739c20.664-20.019 54.167-20.019 74.831 0s20.664 52.474 0 72.493l-187.071 181.228h662.422c29.222 0 52.915 22.95 52.915 51.261s-23.693 51.261-52.915 51.261h-662.428l187.077 181.234c20.664 20.019 20.664 52.476 0 72.495s-54.168 20.019-74.831 0l-277.404-268.739z" />
<glyph unicode="&#xe95c;" glyph-name="badge" d="M949.76 467.2c18.56 30.080 11.52 69.76-16 91.52l-68.48 53.76c-14.080 10.88-23.68 27.52-26.24 45.44l-11.52 87.040c-4.48 35.2-35.2 60.8-70.4 59.52l-86.4-3.2c-17.92-0.64-35.199 5.76-48.639 17.92l-64 58.88c-26.24 23.68-65.92 23.68-91.52 0l-64-58.88c-14.080-12.16-31.36-18.56-49.28-17.92l-86.4 3.2c-35.2 1.28-65.28-24.32-70.4-59.52l-11.52-87.040c-2.56-17.92-12.16-34.56-26.24-45.44l-68.48-53.76c-27.52-21.76-34.56-61.44-16-91.52l46.080-74.24c9.6-15.36 12.8-33.92 8.96-51.2l-18.56-85.76c-7.68-34.56 12.16-69.76 46.080-80.64l82.56-26.88c17.28-5.76 31.36-17.28 39.68-33.92l40.96-77.44c16.64-31.36 53.76-45.44 86.4-32l80 33.28c16.64 7.040 35.2 7.040 51.84 0l80-33.28c32.639-13.44 69.759 0 86.399 32l40.32 77.44c8.32 16 22.4 28.16 39.68 33.92l82.56 26.88c33.28 10.88 53.12 45.44 46.080 80.64l-18.56 85.76c-3.84 17.92-0.64 36.48 8.96 51.2l46.080 74.24zM702.72 495.36l-160.639-193.92c-8.96-11.52-23.040-17.28-36.48-17.28-10.24 0-20.48 3.2-29.44 10.24l-124.16 96.64c-20.48 16.64-24.32 46.72-7.68 67.2 16 21.12 46.080 24.96 67.2 8.32l87.040-67.84 130.56 158.080c16.639 20.48 47.359 23.040 67.839 6.4 19.84-17.28 23.040-47.36 5.76-67.84z" />
<glyph unicode="&#xe95d;" glyph-name="blog" d="M192 832c-70.692 0-128-57.308-128-128v-512c0-70.694 57.308-128 128-128h640c70.694 0 128 57.306 128 128v512c0 70.692-57.306 128-128 128h-640zM704 576c0 35.346 28.653 64 64 64s64-28.654 64-64c0-35.346-28.653-64-64-64s-64 28.654-64 64zM398.834 581.001c25.587 30.704 72.746 30.704 98.332-0.001l183.359-220.029c34.739-41.682 5.094-104.972-49.167-104.972h-366.715c-54.261 0-83.903 63.29-49.166 104.972l183.357 220.029z" />
<glyph unicode="&#xe95e;" glyph-name="board" d="M192 812.801c-70.692 0-128-57.308-128-128v-67.2h214.4v195.2h-86.4zM361.6 812.801v-195.2h598.4v67.2c0 70.692-57.306 128-128 128h-470.4zM960 534.401h-598.4v-196.8h598.4v196.8zM960 254.4h-598.4v-209.6h470.4c70.694 0 128 57.306 128 128v81.6zM278.4 44.8v209.6h-214.4v-81.6c0-70.694 57.308-128 128-128h86.4zM64 337.601h214.4v196.8h-214.4v-196.8z" />
<glyph unicode="&#xe95f;" glyph-name="calendar" d="M368 864c0 26.509-21.491 48-48 48s-48-21.491-48-48v-48h-16c-97.202 0-176-78.798-176-176v-448c0-97.203 78.798-176 176-176h512c97.203 0 176 78.797 176 176v448c0 97.202-78.797 176-176 176h-16v48c0 26.509-21.491 48-48 48s-48-21.491-48-48v-48h-288v48zM656 720v-48c0-26.509 21.491-48 48-48s48 21.491 48 48v48h16c44.186 0 80-35.817 80-80v-80h-672v80c0 44.183 35.817 80 80 80h16v-48c0-26.509 21.491-48 48-48s48 21.491 48 48v48h288zM176 192v272h672v-272c0-44.186-35.814-80-80-80h-512c-44.183 0-80 35.814-80 80z" />
<glyph unicode="&#xe960;" glyph-name="call" d="M183.589 882.745c24.993 24.994 65.516 24.994 90.509 0l126.456-126.456c24.993-24.993 24.993-65.516 0-90.509l-90.273-90.273c19.073-59.905 61.476-131.364 127.789-197.677 66.31-66.31 137.767-108.71 197.67-127.789l90.269 90.273c24.992 24.993 65.517 24.993 90.509 0l126.458-126.459c24.992-24.992 24.992-65.51 0-90.509l-40.57-40.563c-1.645-1.651-3.354-3.194-5.114-4.646-88.25-79.878-209.83-81.011-309.981-53.696-107.444 29.299-218.050 96.749-311.967 190.662-93.916 93.92-161.363 204.525-190.666 311.969-28.204 103.414-26.079 229.676 61.754 318.494 0.367 0.381 0.737 0.76 1.113 1.136l36.043 36.042z" />
<glyph unicode="&#xe961;" glyph-name="card" d="M192 800c-70.692 0-128-57.308-128-128v-80h896v80c0 70.692-57.306 128-128 128h-640zM960 496h-896v-272c0-70.694 57.308-128 128-128h640c70.694 0 128 57.306 128 128v272z" />
<glyph unicode="&#xe962;" glyph-name="category" d="M924.16 488.96l-369.92 369.28c-24.32 24.32-56.96 37.76-90.88 37.76h-271.36c-70.4 0-128-57.6-128-128v-271.36c0-33.92 13.44-66.56 37.76-90.24l369.92-369.92c49.92-49.92 131.2-49.92 181.12 0l271.36 271.36c49.92 49.92 49.92 130.56 0 181.12zM349.44 514.56c-53.12 0-96 42.88-96 96s42.88 96 96 96c53.12 0 96-42.88 96-96s-42.88-96-96-96z" />
<glyph unicode="&#xe963;" glyph-name="change" d="M800 640c0 35.346-28.653 64-64 64h-256c-35.346 0-64 28.654-64 64s28.654 64 64 64h256c106.042 0 192-85.962 192-192v-336h62.976c26.906 0 41.805-31.194 24.89-52.115l-126.982-157.094c-12.806-15.846-36.96-15.846-49.773 0l-126.976 157.094c-16.915 20.922-2.022 52.115 24.89 52.115h62.976v336zM224 256c0-35.347 28.654-64 64-64h256c35.347 0 64-28.653 64-64s-28.653-64-64-64h-256c-106.038 0-192 85.958-192 192v335.999h-62.979c-26.907 0-41.801 31.19-24.887 52.116l126.978 157.095c12.808 15.846 36.966 15.846 49.774 0l126.978-157.095c16.915-20.926 2.020-52.115-24.886-52.115h-62.978v-335.999z" />
<glyph unicode="&#xe964;" glyph-name="check-circle" d="M512 896c-247.68 0-448-200.32-448-448s200.32-448 448-448c247.68 0 448 200.32 448 448s-200.32 448-448 448zM742.4 579.2l-232.96-321.28c-8.32-10.88-20.48-18.56-34.56-19.84-1.28 0-2.56 0-4.48 0-12.16 0-24.32 4.48-33.28 13.44l-154.24 147.2c-19.2 18.56-19.84 48.64-1.28 67.84s48.64 19.84 67.84 1.28l114.56-109.44 200.96 277.12c15.36 21.12 45.44 26.24 67.2 10.88 21.12-15.36 26.24-45.44 10.24-67.2z" />
<glyph unicode="&#xe965;" glyph-name="check-line" d="M926.445 805.106c20.499-16.815 23.482-47.060 6.662-67.555l-472.614-576.003c-8.218-10.010-20.134-16.282-33.043-17.376-12.908-1.101-25.712 3.066-35.501 11.552l-295.385 256.001c-20.033 17.362-22.198 47.677-4.836 67.71s47.677 22.198 67.71 4.836l258.12-223.702 441.336 537.876c16.813 20.493 47.059 23.476 67.552 6.66z" />
<glyph unicode="&#xe966;" glyph-name="chevron-down-line" d="M512 208c-12.73 0-24.94 5.056-33.941 14.061l-384 383.998c-18.745 18.745-18.745 49.137 0 67.882s49.137 18.745 67.882 0l350.059-350.059 350.061 350.059c18.746 18.745 49.133 18.745 67.878 0s18.746-49.137 0-67.882l-383.998-383.998c-9.002-9.005-21.211-14.061-33.941-14.061z" />
<glyph unicode="&#xe967;" glyph-name="chevron-left-line" d="M272 448c0-12.73 5.057-24.94 14.059-33.941l384.002-383.998c18.746-18.746 49.133-18.746 67.878 0s18.746 49.133 0 67.878l-350.057 350.061 350.057 350.059c18.746 18.745 18.746 49.137 0 67.882s-49.133 18.745-67.878 0l-384.002-384c-9.002-9.002-14.059-21.211-14.059-33.941z" />
<glyph unicode="&#xe968;" glyph-name="chevron-right-line" d="M752 448c0-12.73-5.056-24.94-14.061-33.941l-383.998-383.998c-18.745-18.746-49.137-18.746-67.882 0s-18.745 49.133 0 67.878l350.059 350.061-350.059 350.059c-18.745 18.745-18.745 49.137 0 67.882s49.137 18.745 67.882 0l383.998-384c9.005-9.002 14.061-21.211 14.061-33.941z" />
<glyph unicode="&#xe969;" glyph-name="chevron-up-line" d="M512 688c12.73 0 24.94-5.057 33.941-14.059l383.998-384.002c18.746-18.746 18.746-49.133 0-67.878s-49.133-18.746-67.878 0l-350.061 350.057-350.059-350.057c-18.745-18.746-49.137-18.746-67.882 0s-18.745 49.133 0 67.878l384 384.002c9.002 9.002 21.211 14.059 33.941 14.059z" />
<glyph unicode="&#xe96a;" glyph-name="close-circle" d="M512 896c-247.68 0-448-200.32-448-448s200.32-448 448-448c247.68 0 448 200.32 448 448s-200.32 448-448 448zM690.56 335.36c18.56-18.56 18.56-49.28 0-67.84s-49.28-18.56-67.84 0l-112 112-112-112c-18.56-18.56-49.28-18.56-67.84 0s-18.56 49.28 0 67.84l112 112-111.36 112c-18.56 18.56-18.56 49.28 0 67.84s49.28 18.56 67.84 0l112-112 112 112c18.56 18.56 49.28 18.56 67.84 0s18.56-49.28 0-67.84l-112-112 111.36-112z" />
<glyph unicode="&#xe96b;" glyph-name="close-line" d="M897.939 766.059c18.746 18.745 18.746 49.137 0 67.882s-49.133 18.745-67.878 0l-318.061-318.059-318.059 318.059c-18.745 18.745-49.137 18.745-67.882 0s-18.745-49.137 0-67.882l318.059-318.059-318.059-318.061c-18.745-18.746-18.745-49.133 0-67.878s49.137-18.746 67.882 0l318.059 318.057 318.061-318.057c18.746-18.746 49.133-18.746 67.878 0s18.746 49.133 0 67.878l-318.057 318.061 318.057 318.059z" />
<glyph unicode="&#xe96c;" glyph-name="coupon" d="M898.56 560.64c31.36 16.64 61.44 44.16 61.44 79.36v64c0 70.4-57.6 128-128 128h-640c-70.4 0-128-57.6-128-128v-64c0-35.2 30.080-62.72 61.44-79.36 39.68-21.76 66.56-64 66.56-112.64s-26.88-90.88-66.56-112.64c-31.36-16.64-61.44-44.16-61.44-79.36v-64c0-70.4 57.6-128 128-128h640c70.4 0 128 57.6 128 128v64c0 35.2-30.080 62.72-61.44 79.36-39.68 21.76-66.56 64-66.56 112.64s26.88 90.88 66.56 112.64zM353.92 606.080c22.4 22.4 58.88 22.4 81.28 0s22.4-58.88 0-81.28c-22.4-22.4-58.88-22.4-81.28 0-23.040 22.4-23.040 58.88 0 81.28zM357.12 293.12c-14.72 14.72-14.72 39.040 0 54.4l256 256c14.72 14.72 39.040 14.72 54.4 0s14.72-39.040 0-54.4l-256-256c-15.36-15.36-39.68-15.36-54.4 0zM670.080 289.92c-22.4-22.4-58.88-22.4-81.28 0s-22.4 58.88 0 81.28c22.4 22.4 58.88 22.4 81.28 0 23.040-22.4 23.040-58.88 0-81.28z" />
<glyph unicode="&#xe96d;" glyph-name="cs-line-s" d="M224 646.401c-106.038 0-192-85.962-192-192s85.962-192.001 192-192.001h13.715c63.118 0 114.285 51.168 114.285 114.286v155.428c0 63.118-51.167 114.286-114.285 114.286h-13.715zM160.225 526.157c2.365 2.104 4.836 4.093 7.403 5.958 15.829 11.502 35.308 18.286 56.372 18.286h13.715c10.099 0 18.285-8.187 18.285-18.286v-155.428c0-10.099-8.187-18.285-18.285-18.285h-13.715c-21.064 0-40.543 6.783-56.372 18.285-2.567 1.865-5.037 3.854-7.403 5.958-0.076 0.067-0.15 0.134-0.225 0.2-19.64 17.578-32 43.124-32 71.556s12.36 53.977 32 71.555c0.075 0.067 0.15 0.134 0.225 0.201zM800 262.4c106.042 0 192 85.962 192 192.001s-85.958 192-192 192h-13.715c-63.117 0-114.285-51.168-114.285-114.286v-155.428c0-63.118 51.168-114.286 114.285-114.286h13.715zM863.776 382.644c-2.368-2.104-4.838-4.093-7.405-5.958-15.827-11.502-35.309-18.285-56.371-18.285h-13.715c-10.099 0-18.285 8.187-18.285 18.285v155.428c0 10.099 8.186 18.286 18.285 18.286h13.715c21.062 0 40.544-6.784 56.371-18.286 2.566-1.865 5.037-3.854 7.405-5.958 0.077-0.067 0.147-0.134 0.224-0.201 19.642-17.578 32-43.123 32-71.555s-12.358-53.978-32-71.556c-0.077-0.067-0.147-0.134-0.224-0.2zM512.008 758.401c-117.233 0-217.259-74.19-255.457-178.337l-90.129 33.057c51.619 140.737 186.801 241.28 345.587 241.28 158.788 0 293.969-100.543 345.585-241.28l-90.125-33.057c-38.202 104.147-138.228 178.337-255.46 178.337zM559.988 148.589c0-26.509-21.491-48-48-48-138.364 0-258.823 76.384-321.628 189.056l83.853 46.74c46.541-83.495 135.615-139.796 237.775-139.796 26.509 0 48-21.485 48-48zM608 134.4c0-53.018-42.98-96-96-96s-96 42.982-96 96c0 53.018 42.98 96 96 96s96-42.982 96-96z" />
<glyph unicode="&#xe96e;" glyph-name="customer" d="M562.528 693.556c0-97.667-79.175-176.842-176.842-176.842s-176.842 79.175-176.842 176.842c0 97.667 79.175 176.842 176.842 176.842s176.842-79.175 176.842-176.842zM32 156.627c0 162.784 131.958 294.74 294.737 294.74h117.895c162.779 0 294.735-131.956 294.735-294.74 0-65.107-52.781-117.894-117.892-117.894h-471.58c-65.111 0-117.894 52.787-117.894 117.894zM831.994 160c0-22.106-4.486-43.168-12.589-62.317h72.659c55.814 0 101.056 45.242 101.056 101.050 0 139.528-113.107 252.634-252.634 252.634h-41.030c80.301-58.139 132.538-152.653 132.538-259.367v-32zM584.406 544.705c34.794 43.718 55.585 99.079 55.585 159.295 0 30.346-5.281 59.459-14.972 86.47 19.691 9.352 41.713 14.584 64.958 14.584 83.712 0 151.578-67.864 151.578-151.579s-67.866-151.579-151.578-151.579c-41.043 0-78.278 16.312-105.571 42.808z" />
<glyph unicode="&#xe96f;" glyph-name="dashboard" d="M748.787 492.797c106.042 0 192 85.962 192 192s-85.958 192-192 192c-106.035 0-191.997-85.961-191.997-192s85.962-192 191.997-192zM296.514 848c-12.317 21.333-43.108 21.333-55.425 0l-166.277-288c-12.317-21.333 3.079-48 27.713-48h332.554c24.634 0 40.030 26.667 27.713 48l-166.277 288zM76.79 332.797c0 35.347 28.653 64 64 64h256c35.346 0 64-28.653 64-64v-255.997c0-35.347-28.654-64-64-64h-256c-35.347 0-64 28.653-64 64v255.997zM620.789 396.797c-35.346 0-63.999-28.653-63.999-64v-255.997c0-35.347 28.653-64 64-64h255.997c35.347 0 64 28.653 64 64v255.997c0 35.347-28.653 64-64 64h-255.998z" />
<glyph unicode="&#xe970;" glyph-name="delete" d="M336 832c0 26.509 21.491 48 48 48h256c26.509 0 48-21.491 48-48s-21.491-48-48-48h-256c-26.509 0-48 21.491-48 48zM112 640c0 26.509 21.491 48 48 48h704c26.509 0 48-21.491 48-48s-21.491-48-48-48h-36.8l-47.674-476.736c-6.541-65.434-61.606-115.264-127.366-115.264h-280.321c-65.761 0-120.822 49.83-127.365 115.264l-47.674 476.736h-36.8c-26.509 0-48 21.491-48 48zM440.641 424.723c-1.412 24.702-22.581 43.583-47.283 42.172s-43.583-22.581-42.171-47.283l12.8-224.002c1.411-24.698 22.58-43.578 47.283-42.17 24.702 1.414 43.583 22.579 42.172 47.283l-12.8 224zM641.722 466.895c-24.704 1.411-45.873-17.469-47.284-42.172l-12.8-224c-1.412-24.704 17.469-45.869 42.171-47.283 24.704-1.408 45.869 17.472 47.283 42.17l12.8 224.002c1.414 24.702-17.472 45.871-42.17 47.283z" />
<glyph unicode="&#xe971;" glyph-name="design" d="M512 896c-247.68 0-448-200.32-448-448s200.32-448 448-448c50.56 0 37.12 55.68 22.4 115.84-21.12 83.84-44.16 177.28 105.6 140.16 256-64 320 66.56 320 192 0 247.68-200.32 448-448 448zM272 448c-35.2 0-64 28.8-64 64s28.8 64 64 64c35.2 0 64-28.8 64-64s-28.8-64-64-64zM400 624c-35.2 0-64 28.8-64 64s28.8 64 64 64c35.2 0 64-28.8 64-64s-28.8-64-64-64zM624 624c-35.2 0-64 28.8-64 64s28.8 64 64 64c35.2 0 64-28.8 64-64s-28.8-64-64-64zM802.56 472.32c-21.76-27.52-62.080-32.64-89.6-10.88s-32.64 62.080-10.88 89.6c21.76 27.52 62.080 32.64 89.6 10.88s32.64-61.44 10.88-89.6z" />
<glyph unicode="&#xe972;" glyph-name="desktop-line-s" d="M235.356 841.289c-97.202 0-176-78.797-176-176v-322.065c0-97.202 78.798-175.999 176-175.999h90.849l-14.001-34.227c-21.531-52.627 17.179-110.291 74.044-110.291h251.508c56.863 0 95.576 57.664 74.047 110.291l-14.003 34.227h90.848c97.203 0 176 78.797 176 175.999v322.065c0 97.202-78.797 176-176 176h-553.291zM594.075 167.226h-164.148l-19.848-48.518h203.844l-19.848 48.518zM155.356 665.289c0 44.183 35.817 80 80 80h553.291c44.179 0 80-35.817 80-80v-322.065c0-44.184-35.821-79.999-80-79.999h-553.291c-44.183 0-80 35.814-80 79.999v322.065z" />
<glyph unicode="&#xe973;" glyph-name="disconnect-line" d="M512 816c64.062 0 122.952-22.147 169.427-59.201 13.779-10.985 13.632-31.345 1.178-43.805l-22.579-22.577c-12.557-12.554-32.801-12.2-47.355-2.033-28.527 19.927-63.233 31.616-100.671 31.616-94.515 0-171.65-74.521-175.821-167.981l-0.635-14.22c-0.724-16.216-13.473-29.321-29.663-30.49l-14.197-1.025c-71.805-5.185-128.484-65.145-128.484-138.3 0-33.604 11.953-64.419 31.84-88.419 12.758-15.392 15.229-38.906 1.089-53.043l-21.053-21.056c-11.56-11.558-30.162-12.698-41.552-0.973-41.049 42.259-66.324 99.923-66.324 163.491 0 102.81 66.093 190.152 158.127 221.892 11.777 4.061 20.926 13.689 24.197 25.709 31.43 115.503 137.027 200.414 262.476 200.414zM819.405 456.239c-19.616 15.791-28.538 48.237-10.733 66.043l16.742 16.742c9.856 9.853 25.088 12.387 36.73 4.728 60.87-40.043 101.056-108.965 101.056-187.273 0-123.712-100.288-224-224-224-6.778 0-13.498 0.301-20.147 0.896h-222.029c-28.509 0-42.786 34.47-22.627 54.63l32 32c6.001 5.997 14.14 9.37 22.627 9.37h194.714l2.4-0.243c4.282-0.429 8.64-0.653 13.062-0.653 70.694 0 128 57.306 128 128 0 40.326-18.65 76.298-47.795 99.759zM897.939 702.059c18.746 18.745 18.746 49.137 0 67.882s-49.133 18.745-67.878 0l-672.002-672.002c-18.745-18.746-18.745-49.133 0-67.878s49.137-18.746 67.882 0l671.998 671.998z" />
<glyph unicode="&#xe974;" glyph-name="document" d="M896 128c0-70.694-57.306-128-128-128h-512c-70.692 0-128 57.306-128 128v640c0 70.692 57.308 128 128 128h512c70.694 0 128-57.308 128-128v-640zM320 720c-26.509 0-48-21.491-48-48s21.491-48 48-48h384c26.509 0 48 21.491 48 48s-21.491 48-48 48h-384zM272 448c0 26.509 21.491 48 48 48h384c26.509 0 48-21.491 48-48s-21.491-48-48-48h-384c-26.509 0-48 21.491-48 48zM320 272c-26.509 0-48-21.491-48-48s21.491-48 48-48h192c26.509 0 48 21.491 48 48s-21.491 48-48 48h-192z" />
<glyph unicode="&#xe975;" glyph-name="domain" d="M388.008 883.667c-172.258-49.519-301.952-199.602-321.446-382.614h190.934c8.712 141.27 55.615 272.208 130.511 382.614zM636.035 883.667c74.897-110.406 121.802-241.343 130.513-382.614h190.931c-19.494 183.012-149.184 333.095-321.444 382.614zM957.478 405.053h-190.931c-8.71-141.27-55.616-272.208-130.513-382.614 172.26 49.517 301.949 199.603 321.444 382.614zM388.008 22.438c-74.897 110.406-121.8 241.344-130.511 382.614h-190.934c19.494-183.011 149.188-333.098 321.446-382.614zM512.021 17.786c-90.085 105.862-147.919 240.013-158.312 387.267h316.627c-10.394-147.254-68.23-281.405-158.315-387.267zM512.021 888.32c-90.085-105.862-147.919-240.015-158.312-387.267h316.627c-10.394 147.252-68.23 281.405-158.315 387.267z" />
<glyph unicode="&#xe976;" glyph-name="download-line" d="M512 880c26.509 0 48-21.491 48-48v-432.648l137.491 137.453c18.752 18.742 49.139 18.738 67.885-0.010 18.739-18.748 18.739-49.14-0.013-67.882l-219.491-219.427c-9.003-9.005-21.213-14.054-33.943-14.054s-24.939 5.062-33.939 14.061l-219.364 219.431c-18.742 18.748-18.738 49.14 0.010 67.882s49.14 18.738 67.882-0.010l137.482-137.522v432.728c0 26.509 21.491 48 48 48zM176 228.57c0 26.509-21.491 48-48 48s-48-21.491-48-48v-36.57c0-97.203 78.798-176 176-176h512c97.203 0 176 78.797 176 176v36.57c0 26.509-21.491 48-48 48s-48-21.491-48-48v-36.57c0-44.186-35.814-80-80-80h-512c-44.183 0-80 35.814-80 80v36.57z" />
<glyph unicode="&#xe977;" glyph-name="duplication" d="M296.453 751c-0.966 0-1.929-0.011-2.889-0.032 2.817 68.2 58.997 122.625 127.889 122.625h389.171c70.694 0 128-57.308 128-128v-389.17c0-69.729-55.75-126.433-125.114-127.969 0.077 1.786 0.115 3.578 0.115 5.376v389.17c0 70.692-57.312 128-128 128h-389.172zM213.117 667.562c-70.692 0-128-57.308-128-128v-389.169c0-70.694 57.308-128 128-128h389.17c70.692 0 127.997 57.306 127.997 128v389.169c0 70.692-57.306 128-127.997 128h-389.17z" />
<glyph unicode="&#xe978;" glyph-name="extend" d="M896 880c26.509 0 48-21.491 48-48v-316.236c0-26.509-21.491-48-48-48s-48 21.491-48 48v196.668l-600.432-600.432h196.668c26.509 0 48-21.491 48-48s-21.491-48-48-48h-316.236c-26.509 0-48 21.491-48 48v316.236c0 26.509 21.491 48 48 48s48-21.491 48-48v-204.037l607.802 607.802h-204.037c-26.509 0-48 21.491-48 48s21.491 48 48 48h316.236z" />
<glyph unicode="&#xe979;" glyph-name="grade" d="M899.251 535.976c0-138.113-71.424-259.548-179.347-329.378l25.158-201.242c3.117-24.973-22.483-43.61-45.286-32.966l-179.018 83.539c-8.578 4-18.487 4-27.065 0l-179.016-83.539c-22.807-10.643-48.407 7.994-45.285 32.966l25.156 201.248c-107.924 69.83-179.345 191.259-179.345 329.372 0 216.509 175.515 392.024 392.024 392.024 216.511 0 392.024-175.515 392.024-392.024zM531.573 706.079c-7.663 23.586-41.031 23.586-48.694 0l-24.915-76.679c-3.427-10.548-13.256-17.69-24.347-17.69h-80.626c-24.799 0-35.11-31.734-15.047-46.311l65.228-47.39c8.972-6.519 12.727-18.074 9.3-28.622l-24.915-76.679c-7.663-23.586 19.332-43.199 39.395-28.622l65.228 47.391c8.973 6.519 21.122 6.519 30.095 0l65.228-47.391c20.063-14.577 47.058 5.036 39.394 28.622l-24.915 76.679c-3.427 10.548 0.328 22.103 9.3 28.622l65.226 47.39c20.064 14.577 9.754 46.311-15.046 46.311h-80.625c-11.091 0-20.92 7.142-24.347 17.69l-24.915 76.679z" />
<glyph unicode="&#xe97a;" glyph-name="guide-circle-line" d="M160 448c0 194.404 157.596 352 352 352 194.406 0 352-157.596 352-352 0-194.406-157.594-352-352-352-194.404 0-352 157.594-352 352zM512 896c-247.423 0-448-200.577-448-448s200.577-448 448-448c247.424 0 448 200.576 448 448s-200.576 448-448 448zM576 256v192c0 35.346-28.653 64-64 64s-64-28.653-64-64v-192c0-35.347 28.654-64 64-64s64 28.653 64 64zM512 576c-35.346 0-64 28.654-64 64s28.654 64 64 64c35.347 0 64-28.654 64-64s-28.653-64-64-64z" />
<glyph unicode="&#xe97b;" glyph-name="guidebook-line-s" d="M144 704v-544c0-79.526 64.471-144 144-144h480c61.856 0 112 50.144 112 112v576c0 97.202-78.797 176-176 176h-384c-97.202 0-176-78.798-176-176zM784 704v-401.133c-5.229 0.749-10.566 1.133-16 1.133h-480c-16.831 0-32.987-2.886-48-8.192v408.192c0 44.183 35.817 80 80 80h384c44.186 0 80-35.817 80-80zM288 112c-26.509 0-48 21.491-48 48s21.491 48 48 48h480c8.838 0 16-7.162 16-16v-64c0-8.838-7.162-16-16-16h-480zM384 624h256c26.509 0 48-21.491 48-48s-21.491-48-48-48h-256c-26.509 0-48 21.491-48 48s21.491 48 48 48z" />
<glyph unicode="&#xe97c;" glyph-name="info-circle" d="M512 896c-247.68 0-448-200.32-448-448s200.32-448 448-448c247.68 0 448 200.32 448 448s-200.32 448-448 448zM576 256c0-35.2-28.8-64-64-64s-64 28.8-64 64v192c0 35.2 28.8 64 64 64s64-28.8 64-64v-192zM512 576c-35.2 0-64 28.8-64 64s28.8 64 64 64c35.2 0 64-28.8 64-64s-28.8-64-64-64z" />
<glyph unicode="&#xe97d;" glyph-name="info-triangle" d="M567.566 830.753c-24.569 42.996-86.566 42.996-111.135 0l-401.716-703.002c-24.381-42.669 6.427-95.757 55.568-95.757h803.433c49.139 0 79.949 53.088 55.565 95.757l-401.714 703.002zM575.999 575.996c0-35.347-28.654-64-64-64s-64 28.653-64 64c0 35.346 28.653 64 64 64s64-28.654 64-64zM575.999 191.994c0-35.341-28.654-64-64-64s-64 28.659-64 64v192.003c0 35.346 28.653 64 64 64s64-28.654 64-64v-192.003z" />
<glyph unicode="&#xe97e;" glyph-name="info" d="M527.531 670.918c68.497 0 124.028 55.528 124.028 124.025s-55.53 124.025-124.028 124.025c-68.497 0-124.026-55.528-124.026-124.025s55.528-124.025 124.026-124.025zM285.119 583.564c-2.819-19.731 14.094-28.189 39.462-33.825 4.12-0.915 8.909-1.608 13.992-2.342 26.22-3.791 60.284-8.716 50.839-51.214-9.173-41.279-37.004-213.161-50.097-294.025-3-18.534-5.227-32.282-6.278-38.586-0.367-2.202-0.828-4.678-1.336-7.392-7.288-39.027-23.874-127.84 99.992-167.373 132.481-42.285 259.327 39.462 270.604 87.379 11.27 47.923-36.646 25.37-50.739 16.915-14.095-8.454-90.202-50.739-95.839 2.816-3.829 36.371 22.244 185.85 42.019 299.222 9.343 53.564 17.281 99.068 19.994 120.774 8.456 67.651 2.819 93.020-50.737 98.657s-149.395 2.82-202.951 0c-53.556-2.82-76.106-11.275-78.925-31.006z" />
<glyph unicode="&#xe97f;" glyph-name="link-line" d="M797.786 699.997c47.149-47.149 47.149-123.594 0-170.744l-133.35-133.35c-47.149-47.149-123.594-47.149-170.743 0-18.745 18.746-49.137 18.746-67.882 0s-18.745-49.137 0-67.882c84.64-84.643 221.87-84.643 306.51 0l133.35 133.35c84.634 84.64 84.634 221.868 0 306.508-84.64 84.639-221.869 84.639-306.511 0-18.746-18.746-18.746-49.137 0-67.882s49.137-18.746 67.882 0c47.147 47.149 123.595 47.149 170.744 0zM230.058 196.224c-47.149 47.149-47.149 123.59 0 170.742l133.349 133.35c47.15 47.149 123.594 47.149 170.744 0 18.745-18.745 49.137-18.745 67.882 0s18.745 49.137 0 67.882c-84.64 84.64-221.868 84.64-306.508 0l-133.349-133.35c-84.64-84.639-84.64-221.869 0-306.509s221.868-84.64 306.508 0c18.746 18.746 18.746 49.139 0 67.885s-49.137 18.746-67.882 0c-47.149-47.149-123.594-47.149-170.743 0z" />
<glyph unicode="&#xe980;" glyph-name="list" d="M128 880c-26.509 0-48-21.491-48-48s21.491-48 48-48h768c26.509 0 48 21.491 48 48s-21.491 48-48 48h-768zM128 624c-26.509 0-48-21.491-48-48s21.491-48 48-48h768c26.509 0 48 21.491 48 48s-21.491 48-48 48h-768zM80 320c0 26.509 21.491 48 48 48h768c26.509 0 48-21.491 48-48s-21.491-48-48-48h-768c-26.509 0-48 21.491-48 48zM128 112c-26.509 0-48-21.491-48-48s21.491-48 48-48h384c26.509 0 48 21.491 48 48s-21.491 48-48 48h-384z" />
<glyph unicode="&#xe981;" glyph-name="mail-line" d="M792.646 704h-561.29l280.644-255.13 280.646 255.13zM160 639.13v-415.13c0-17.67 14.327-32 32-32h640c17.67 0 32 14.33 32 32v415.129l-319.711-290.646c-18.308-16.644-46.268-16.644-64.577 0l-319.712 290.647zM64 672c0 70.692 57.308 128 128 128h640c70.694 0 128-57.308 128-128v-448c0-70.694-57.306-128-128-128h-640c-70.692 0-128 57.306-128 128v448z" />
<glyph unicode="&#xe982;" glyph-name="mail" d="M67.485 701.793c-2.279-9.56-3.485-19.535-3.485-29.793v-448c0-70.694 57.308-128 128-128h640c70.694 0 128 57.306 128 128v448c0 17.978-3.706 35.091-10.4 50.616l-405.042-373.887c-17.89-16.514-45.31-17.018-63.795-1.174l-413.277 354.238zM881.261 790.178c-15.162 6.328-31.802 9.822-49.261 9.822h-640c-25.176 0-48.655-7.268-68.452-19.821l387.271-331.947 370.442 341.946z" />
<glyph unicode="&#xe983;" glyph-name="master" d="M114.218 615.703l135.391-343.505c3.855-9.779 13.301-16.211 23.816-16.211h477.148c10.515 0 19.962 6.432 23.814 16.211l135.392 343.505c12.41 31.489-26.176 58.174-51.258 35.446l-154.522-140.035-164.945 261.162c-12.558 19.883-41.554 19.883-54.111 0l-164.945-261.162-154.522 140.035c-25.080 22.728-63.671-3.957-51.26-35.446zM256 176c-26.509 0-48-21.491-48-48s21.491-48 48-48h512c26.509 0 48 21.491 48 48s-21.491 48-48 48h-512z" />
<glyph unicode="&#xe984;" glyph-name="menu-line-s" d="M80 768c0 26.509 21.491 48 48 48h768c26.509 0 48-21.491 48-48s-21.491-48-48-48h-768c-26.509 0-48 21.491-48 48zM80 448c0 26.509 21.491 48 48 48h768c26.509 0 48-21.491 48-48s-21.491-48-48-48h-768c-26.509 0-48 21.491-48 48zM128 176c-26.509 0-48-21.491-48-48s21.491-48 48-48h768c26.509 0 48 21.491 48 48s-21.491 48-48 48h-768z" />
</font>
</defs>
</svg>
