<svg width="24" height="24" viewBox="0 0 24 24" fill="none" xmlns="http://www.w3.org/2000/svg">
<path d="M16.6001 8.03496C16.2044 8.03459 15.8174 8.1516 15.4881 8.37121C15.1589 8.59081 14.9021 8.90313 14.7504 9.26867C14.5987 9.6342 14.5588 10.0365 14.6358 10.4247C14.7128 10.8129 14.9032 11.1696 15.1829 11.4496C15.4626 11.7296 15.8191 11.9203 16.2072 11.9977C16.5954 12.075 16.9977 12.0355 17.3634 11.8841C17.7291 11.7328 18.0416 11.4763 18.2616 11.1473C18.4815 10.8182 18.5989 10.4314 18.5989 10.0356C18.5989 9.50533 18.3883 8.99675 18.0136 8.62161C17.6388 8.24648 17.1304 8.03547 16.6001 8.03496ZM9.39098 10.0356C9.39098 9.63991 9.27364 9.25311 9.05381 8.92411C8.83397 8.59511 8.52152 8.33868 8.15595 8.18725C7.79038 8.03583 7.38812 7.99621 7.00004 8.07341C6.61195 8.1506 6.25547 8.34114 5.97568 8.62094C5.69588 8.90073 5.50534 9.25721 5.42815 9.6453C5.35095 10.0334 5.39057 10.4356 5.542 10.8012C5.69342 11.1668 5.94984 11.4792 6.27885 11.6991C6.60785 11.9189 6.99465 12.0362 7.39034 12.0362C7.92094 12.0362 8.42981 11.8255 8.805 11.4503C9.18019 11.0751 9.39098 10.5662 9.39098 10.0356ZM11.9943 1.36413e-06C9.62115 0.00113286 7.30164 0.705882 5.329 2.02515C3.35636 3.34441 1.81918 5.21895 0.911809 7.41176C0.00443449 9.60457 -0.232388 12.0172 0.23128 14.3446C0.694949 16.672 1.83829 18.8096 3.51675 20.4873C5.1952 22.165 7.33341 23.3073 9.66102 23.7698C11.9886 24.2324 14.4011 23.9944 16.5935 23.086C18.7859 22.1776 20.6597 20.6395 21.978 18.6662C23.2964 16.693 24 14.3731 24 12C24 10.4237 23.6894 8.86275 23.086 7.40648C22.4826 5.9502 21.5982 4.62707 20.4833 3.51269C19.3683 2.39832 18.0448 1.51452 16.5882 0.911803C15.1317 0.309084 13.5706 -0.00075023 11.9943 1.36413e-06ZM11.9943 22.1043C9.99509 22.1043 8.0408 21.5114 6.37854 20.4007C4.71628 19.29 3.4207 17.7114 2.65564 15.8644C1.89058 14.0174 1.69041 11.985 2.08043 10.0242C2.47045 8.06342 3.43316 6.26234 4.84679 4.8487C6.26043 3.43506 8.06152 2.47236 10.0223 2.08234C11.9831 1.69231 14.0155 1.89249 15.8625 2.65754C17.7095 3.4226 19.2881 4.71818 20.3988 6.38044C21.5095 8.0427 22.1024 9.99699 22.1024 11.9962C22.1024 14.677 21.0374 17.248 19.1418 19.1437C17.2461 21.0393 14.6751 22.1043 11.9943 22.1043ZM11.9943 14.958C11.1206 14.9468 10.257 15.1463 9.47684 15.5397C8.69665 15.9331 8.0228 16.5088 7.5124 17.2181C7.37457 17.4151 7.32064 17.6588 7.36249 17.8955C7.40433 18.1323 7.53853 18.3428 7.73554 18.4806C7.93256 18.6184 8.17626 18.6724 8.41303 18.6305C8.64981 18.5887 8.86026 18.4545 8.9981 18.2575C9.35012 17.7957 9.80398 17.4215 10.3243 17.1639C10.8447 16.9062 11.4175 16.7722 11.9981 16.7722C12.5787 16.7722 13.1515 16.9062 13.6719 17.1639C14.1922 17.4215 14.6461 17.7957 14.9981 18.2575C15.0663 18.355 15.1531 18.4382 15.2535 18.5022C15.3539 18.5662 15.4659 18.6098 15.5832 18.6305C15.7004 18.6512 15.8206 18.6487 15.9368 18.6229C16.0531 18.5972 16.1631 18.5489 16.2607 18.4806C16.3582 18.4124 16.4414 18.3256 16.5054 18.2252C16.5694 18.1248 16.613 18.0128 16.6337 17.8955C16.6544 17.7783 16.6519 17.6581 16.6261 17.5419C16.6004 17.4256 16.552 17.3156 16.4838 17.2181C15.9732 16.5072 15.2983 15.9304 14.5165 15.5368C13.7348 15.1433 12.8694 14.9447 11.9943 14.958Z" fill="#BDBDBD"/>
</svg>
