<svg width="24" height="24" viewBox="0 0 24 24" fill="none" xmlns="http://www.w3.org/2000/svg">
<path d="M12 0C9.62662 0 7.30655 0.703787 5.33316 2.02236C3.35977 3.34094 1.8217 5.21508 0.91345 7.4078C0.00519886 9.60051 -0.23244 12.0133 0.230582 14.3411C0.693605 16.6689 1.83649 18.807 3.51472 20.4853C5.19295 22.1635 7.33114 23.3064 9.65891 23.7694C11.9867 24.2324 14.3995 23.9948 16.5922 23.0865C18.7849 22.1783 20.6591 20.6402 21.9776 18.6668C23.2962 16.6935 24 14.3734 24 12C23.9995 8.81756 22.7351 5.7656 20.4847 3.51528C18.2344 1.26495 15.1824 0.000505671 12 0ZM12 22.1043C10.0008 22.1043 8.04653 21.5114 6.38426 20.4007C4.722 19.29 3.42642 17.7114 2.66137 15.8644C1.89631 14.0174 1.69614 11.985 2.08616 10.0242C2.47618 8.06342 3.43888 6.26234 4.85252 4.8487C6.26616 3.43506 8.06724 2.47236 10.028 2.08234C11.9888 1.69231 14.0212 1.89249 15.8682 2.65754C17.7152 3.4226 19.2939 4.71817 20.4046 6.38044C21.5152 8.0427 22.1081 9.99699 22.1081 11.9962C22.1081 14.677 21.0431 17.248 19.1475 19.1437C17.2519 21.0393 14.6808 22.1043 12 22.1043ZM9.39479 10.0356C9.39479 9.63991 9.27746 9.25311 9.05762 8.92411C8.83779 8.59511 8.52533 8.33867 8.15977 8.18725C7.7942 8.03583 7.39194 7.99621 7.00385 8.07341C6.61577 8.1506 6.25929 8.34114 5.9795 8.62094C5.6997 8.90073 5.50916 9.25721 5.43196 9.6453C5.35477 10.0334 5.39438 10.4356 5.54581 10.8012C5.69723 11.1668 5.95366 11.4792 6.28266 11.6991C6.61167 11.9189 6.99847 12.0362 7.39416 12.0362C7.65689 12.0362 7.91704 11.9845 8.15977 11.8839C8.40249 11.7834 8.62304 11.636 8.80882 11.4503C8.99459 11.2645 9.14196 11.0439 9.2425 10.8012C9.34304 10.5585 9.39479 10.2983 9.39479 10.0356ZM16.6039 8.03496C16.2083 8.03496 15.8214 8.1523 15.4924 8.37213C15.1634 8.59196 14.907 8.90442 14.7556 9.26999C14.6042 9.63556 14.5645 10.0378 14.6417 10.4259C14.7189 10.814 14.9095 11.1705 15.1893 11.4503C15.4691 11.7301 15.8255 11.9206 16.2136 11.9978C16.6017 12.075 17.004 12.0354 17.3695 11.8839C17.7351 11.7325 18.0476 11.4761 18.2674 11.1471C18.4872 10.8181 18.6046 10.4313 18.6046 10.0356C18.6046 9.77287 18.5528 9.51272 18.4523 9.26999C18.3518 9.02726 18.2044 8.80671 18.0186 8.62094C17.8328 8.43516 17.6123 8.28779 17.3695 8.18725C17.1268 8.08671 16.8667 8.03496 16.6039 8.03496ZM12 19.6364C12.6651 19.6364 13.3237 19.5053 13.9382 19.2507C14.5527 18.9961 15.1109 18.623 15.5812 18.1526C16.0514 17.6822 16.4243 17.1238 16.6787 16.5092C16.933 15.8947 17.0638 15.236 17.0636 14.5709H6.93452C6.93452 15.9143 7.4682 17.2028 8.41816 18.1527C9.36812 19.1027 10.6565 19.6364 12 19.6364Z" fill="#BDBDBD"/>
</svg>
