<svg width="24" height="24" viewBox="0 0 24 24" fill="none" xmlns="http://www.w3.org/2000/svg">
<path d="M12 0C9.62663 0 7.30655 0.703787 5.33316 2.02236C3.35977 3.34094 1.82171 5.21508 0.913455 7.4078C0.00520313 9.60051 -0.232442 12.0133 0.230581 14.3411C0.693603 16.6689 1.8365 18.807 3.51473 20.4853C5.19296 22.1635 7.33115 23.3064 9.65892 23.7694C11.9867 24.2324 14.3995 23.9948 16.5922 23.0865C18.7849 22.1783 20.6591 20.6402 21.9776 18.6668C23.2962 16.6935 24 14.3734 24 12C23.9995 8.81756 22.7351 5.7656 20.4847 3.51528C18.2344 1.26495 15.1824 0.000505671 12 0ZM12 22.1043C10.0008 22.1043 8.04653 21.5114 6.38426 20.4007C4.722 19.29 3.42642 17.7114 2.66137 15.8644C1.89631 14.0174 1.69613 11.985 2.08616 10.0242C2.47618 8.06342 3.43888 6.26234 4.85252 4.8487C6.26616 3.43506 8.06725 2.47236 10.028 2.08234C11.9888 1.69231 14.0212 1.89249 15.8682 2.65754C17.7152 3.4226 19.2939 4.71817 20.4046 6.38044C21.5152 8.0427 22.1081 9.99699 22.1081 11.9962C22.1081 14.677 21.0431 17.248 19.1475 19.1437C17.2519 21.0393 14.6808 22.1043 12 22.1043ZM16.6059 8.03496C16.2101 8.03459 15.8231 8.1516 15.4938 8.37121C15.1646 8.59081 14.9079 8.90313 14.7562 9.26867C14.6044 9.6342 14.5645 10.0365 14.6415 10.4247C14.7185 10.8129 14.9089 11.1696 15.1886 11.4496C15.4683 11.7296 15.8248 11.9203 16.2129 11.9977C16.6011 12.075 17.0034 12.0355 17.3691 11.8841C17.7348 11.7328 18.0474 11.4763 18.2673 11.1473C18.4872 10.8182 18.6046 10.4314 18.6046 10.0356C18.6046 9.50533 18.3941 8.99675 18.0193 8.62161C17.6445 8.24647 17.1361 8.03547 16.6059 8.03496ZM9.39479 10.0356C9.39479 9.63975 9.27736 9.2528 9.05736 8.92371C8.83735 8.59463 8.52467 8.3382 8.15888 8.18689C7.79309 8.03558 7.39064 7.99618 7.00245 8.07369C6.61426 8.15119 6.25779 8.34212 5.97815 8.62229C5.69851 8.90247 5.50826 9.2593 5.4315 9.64764C5.35473 10.036 5.3949 10.4384 5.54691 10.8039C5.69892 11.1694 5.95594 11.4815 6.28544 11.7009C6.61494 11.9203 7.00212 12.037 7.39797 12.0362C7.92791 12.0352 8.4358 11.824 8.81017 11.4489C9.18454 11.0738 9.39479 10.5655 9.39479 10.0356ZM14.5709 15.4768H9.43103C9.19026 15.4768 8.95935 15.5724 8.7891 15.7427C8.61885 15.9129 8.52321 16.1438 8.52321 16.3846C8.52321 16.6254 8.61885 16.8563 8.7891 17.0265C8.95935 17.1968 9.19026 17.2924 9.43103 17.2924H14.5709C14.8117 17.2924 15.0426 17.1968 15.2128 17.0265C15.3831 16.8563 15.4787 16.6254 15.4787 16.3846C15.4787 16.1438 15.3831 15.9129 15.2128 15.7427C15.0426 15.5724 14.8117 15.4768 14.5709 15.4768Z" fill="#BDBDBD"/>
</svg>
