<svg width="24" height="24" viewBox="0 0 24 24" fill="none" xmlns="http://www.w3.org/2000/svg">
<path d="M12 1.51595e-07C9.62655 1.81571e-07 7.3064 0.703834 5.33297 2.02249C3.35954 3.34116 1.82146 5.21541 0.913269 7.40824C0.00507381 9.60106 -0.232456 12.014 0.230721 14.3418C0.693898 16.6696 1.83697 18.8078 3.51539 20.4859C5.19381 22.1641 7.33219 23.3068 9.66009 23.7697C11.988 24.2325 14.4008 23.9945 16.5935 23.086C18.7862 22.1775 20.6602 20.6391 21.9786 18.6655C23.2969 16.6918 24.0004 14.3715 24 11.9981C24 10.4223 23.6896 8.86198 23.0865 7.40618C22.4834 5.95038 21.5995 4.62763 20.4852 3.51348C19.3708 2.39933 18.0479 1.5156 16.5921 0.912751C15.1362 0.309903 13.5758 -0.000250329 12 1.51595e-07ZM12 22.1023C10.0008 22.1023 8.04652 21.5095 6.38426 20.3988C4.72199 19.2881 3.42642 17.7095 2.66136 15.8625C1.89631 14.0155 1.69613 11.9831 2.08616 10.0223C2.47618 8.06151 3.43888 6.26043 4.85252 4.84679C6.26615 3.43315 8.06725 2.47045 10.028 2.08043C11.9888 1.6904 14.0212 1.89058 15.8682 2.65563C17.7152 3.42069 19.2939 4.71627 20.4046 6.37853C21.5152 8.04079 22.1081 9.99509 22.1081 11.9943C22.1081 14.6751 21.0431 17.2461 19.1475 19.1418C17.2519 21.0374 14.6808 22.1023 12 22.1023ZM9.39479 10.0337C9.39479 9.63792 9.27741 9.25105 9.05749 8.922C8.83757 8.59296 8.525 8.33653 8.15932 8.18516C7.79364 8.0338 7.39129 7.99429 7.00315 8.07164C6.61501 8.14899 6.25854 8.33972 5.97882 8.6197C5.6991 8.89969 5.5087 9.25635 5.43172 9.64456C5.35475 10.0328 5.39464 10.4351 5.54636 10.8006C5.69808 11.1662 5.95479 11.4785 6.28404 11.6981C6.6133 11.9177 7.00029 12.0347 7.39606 12.0343C7.92633 12.0338 8.43471 11.8228 8.80949 11.4477C9.18427 11.0725 9.39479 10.564 9.39479 10.0337ZM16.6039 8.03306C16.2083 8.03306 15.8215 8.15039 15.4925 8.37022C15.1635 8.59006 14.907 8.90251 14.7556 9.26808C14.6042 9.63365 14.5646 10.0359 14.6418 10.424C14.7189 10.8121 14.9095 11.1686 15.1893 11.4484C15.4691 11.7281 15.8256 11.9187 16.2136 11.9959C16.6017 12.0731 17.004 12.0335 17.3695 11.882C17.7351 11.7306 18.0476 11.4742 18.2674 11.1452C18.4872 10.8162 18.6046 10.4294 18.6046 10.0337C18.6046 9.50309 18.3938 8.99422 18.0186 8.61903C17.6434 8.24384 17.1345 8.03306 16.6039 8.03306ZM16.2626 15.1221C16.1651 15.0536 16.0552 15.0051 15.939 14.9791C15.8228 14.9532 15.7027 14.9505 15.5854 14.971C15.4682 14.9916 15.3561 15.035 15.2557 15.0989C15.1552 15.1628 15.0683 15.2458 15 15.3433C14.648 15.805 14.1941 16.1793 13.6738 16.4369C13.1534 16.6945 12.5806 16.8285 12 16.8285C11.4194 16.8285 10.8466 16.6945 10.3262 16.4369C9.80589 16.1793 9.35202 15.805 9 15.3433C8.93379 15.2406 8.84754 15.1524 8.74642 15.0838C8.6453 15.0153 8.53139 14.9679 8.4115 14.9444C8.29161 14.9209 8.16823 14.9219 8.04872 14.9472C7.92922 14.9726 7.81605 15.0218 7.71601 15.0919C7.61598 15.162 7.53113 15.2516 7.46653 15.3553C7.40194 15.459 7.35894 15.5746 7.34011 15.6953C7.32127 15.816 7.32699 15.9393 7.35693 16.0577C7.38686 16.1762 7.44039 16.2874 7.51431 16.3846C8.02506 17.0942 8.69956 17.6701 9.48051 18.0632C10.2615 18.4563 11.1258 18.6551 12 18.6427C12.8736 18.6547 13.7372 18.4557 14.5175 18.0625C15.2977 17.6694 15.9716 17.0938 16.4819 16.3846C16.5504 16.2873 16.5991 16.1775 16.6252 16.0614C16.6512 15.9453 16.6542 15.8251 16.6338 15.7079C16.6134 15.5906 16.5702 15.4786 16.5065 15.378C16.4428 15.2775 16.3599 15.1905 16.2626 15.1221Z" fill="#BDBDBD"/>
</svg>
