<svg width="24" height="24" viewBox="0 0 24 24" fill="none" xmlns="http://www.w3.org/2000/svg">
<path d="M9.39288 10.0356C9.39288 9.63991 9.27555 9.25311 9.05571 8.92411C8.83588 8.59511 8.52343 8.33868 8.15786 8.18725C7.79229 8.03583 7.39003 7.99621 7.00194 8.07341C6.61386 8.1506 6.25738 8.34114 5.97759 8.62094C5.69779 8.90073 5.50725 9.25721 5.43005 9.6453C5.35286 10.0334 5.39248 10.4356 5.5439 10.8012C5.69532 11.1668 5.95175 11.4792 6.28075 11.6991C6.60976 11.9189 6.99656 12.0362 7.39225 12.0362C7.92285 12.0362 8.43172 11.8255 8.80691 11.4503C9.1821 11.0751 9.39288 10.5662 9.39288 10.0356ZM12.0019 1.51626e-07C9.62845 -0.000377067 7.30819 0.703091 5.33455 2.02144C3.36091 3.33979 1.82254 5.2138 0.913999 7.40648C0.00545486 9.59915 -0.232458 12.012 0.230349 14.3399C0.693156 16.6678 1.8359 18.8062 3.51405 20.4846C5.1922 22.163 7.33039 23.3061 9.65822 23.7693C11.986 24.2325 14.3989 23.9949 16.5918 23.0867C18.7846 22.1785 20.6588 20.6405 21.9775 18.667C23.2962 16.6936 24 14.3735 24 12C24.0003 10.4242 23.6901 8.86384 23.0872 7.40794C22.4844 5.95205 21.6007 4.62916 20.4865 3.51483C19.3724 2.40051 18.0496 1.51656 16.5938 0.913484C15.138 0.310405 13.5777 1.31718e-07 12.0019 1.51626e-07V1.51626e-07ZM12.0019 22.1062C10.0027 22.1062 8.04843 21.5133 6.38617 20.4026C4.7239 19.292 3.42833 17.7133 2.66327 15.8663C1.89821 14.0193 1.69804 11.9869 2.08806 10.0261C2.47808 8.06533 3.44078 6.26425 4.85442 4.85061C6.26806 3.43697 8.06915 2.47426 10.0299 2.08424C11.9907 1.69422 14.0231 1.89439 15.8701 2.65945C17.7171 3.42451 19.2958 4.72008 20.4065 6.38235C21.5172 8.04461 22.11 9.9989 22.11 11.9981C22.11 14.6789 21.045 17.2499 19.1494 19.1456C17.2538 21.0412 14.6827 22.1062 12.0019 22.1062V22.1062ZM16.6059 8.03496C16.2102 8.03496 15.8234 8.1523 15.4944 8.37213C15.1654 8.59196 14.9089 8.90442 14.7575 9.26999C14.6061 9.63556 14.5665 10.0378 14.6437 10.4259C14.7209 10.814 14.9114 11.1705 15.1912 11.4503C15.471 11.7301 15.8275 11.9206 16.2155 11.9978C16.6036 12.075 17.0059 12.0354 17.3715 11.8839C17.737 11.7325 18.0495 11.4761 18.2693 11.1471C18.4892 10.8181 18.6065 10.4313 18.6065 10.0356C18.6065 9.77255 18.5546 9.51208 18.4538 9.2691C18.3531 9.02613 18.2053 8.80541 18.0192 8.61959C17.833 8.43376 17.612 8.28647 17.3688 8.18616C17.1256 8.08584 16.8651 8.03446 16.602 8.03496H16.6059ZM12.0019 13.4914C11.3711 13.4914 10.7465 13.6157 10.1637 13.8572C9.58095 14.0986 9.05146 14.4525 8.6055 14.8986C8.15955 15.3448 7.80585 15.8744 7.56463 16.4573C7.3234 17.0401 7.19937 17.6648 7.19962 18.2956H16.8061C16.8061 17.0215 16.3 15.7995 15.399 14.8985C14.498 13.9976 13.2761 13.4914 12.0019 13.4914V13.4914Z" fill="#BDBDBD"/>
</svg>
